<?xml version="1.0" encoding="utf-8"?>
<!-- Generator: Adobe Illustrator 16.0.0, SVG Export Plug-In . SVG Version: 6.00 Build 0)  -->
<!DOCTYPE svg PUBLIC "-//W3C//DTD SVG 1.1//EN" "http://www.w3.org/Graphics/SVG/1.1/DTD/svg11.dtd">
<svg version="1.1" xmlns="http://www.w3.org/2000/svg" xmlns:xlink="http://www.w3.org/1999/xlink" x="0px" y="0px"
	 width="630.232px" height="254.263px" viewBox="0 0 630.232 254.263" enable-background="new 0 0 630.232 254.263"
	 xml:space="preserve">
<g id="Layer_3">
	<line fill="none" stroke="#000000" stroke-miterlimit="10" x1="238.678" y1="191.998" x2="238.678" y2="211.998"/>
	<line fill="none" stroke="#000000" stroke-miterlimit="10" x1="332.678" y1="191.998" x2="332.678" y2="211.998"/>
	<line fill="none" stroke="#000000" stroke-miterlimit="10" x1="420.155" y1="213.177" x2="332.209" y2="192.038"/>
	<line fill="none" stroke="#000000" stroke-miterlimit="10" x1="539.139" y1="191.74" x2="474.419" y2="211.626"/>
	<line fill="none" stroke="#000000" stroke-miterlimit="10" x1="600.062" y1="211.972" x2="537.197" y2="191.556"/>
	<line fill="none" stroke="#000000" stroke-miterlimit="10" x1="538.678" y1="192.998" x2="538.678" y2="212.998"/>
	<line fill="none" stroke="#000000" stroke-miterlimit="10" x1="363.178" y1="173.498" x2="383.178" y2="173.498"/>
</g>
<g id="Layer_2">
	<path opacity="0.5" fill="#7AC943" stroke="#000000" stroke-miterlimit="10" d="M279.678,34.351
		c0,6.101-5.284,11.147-11.678,11.147h-61.745c-6.394,0-11.577-5.046-11.577-11.147V20.543c0-6.101,5.183-11.046,11.577-11.046H268
		c6.394,0,11.678,4.945,11.678,11.046V34.351z"/>
	<path opacity="0.6" fill="#3FA9F5" stroke="#000000" stroke-miterlimit="10" d="M161.678,180.351c0,6.1-4.459,11.146-9.396,11.146
		h-47.667c-4.936,0-8.938-5.047-8.938-11.146v-13.808c0-6.101,4.001-11.046,8.938-11.046h47.667c4.936,0,9.396,4.945,9.396,11.046
		V180.351z"/>
	<path opacity="0.6" fill="#3FA9F5" stroke="#000000" stroke-miterlimit="10" d="M272.678,180.351c0,6.1-4.459,11.146-9.396,11.146
		h-47.667c-4.936,0-8.938-5.047-8.938-11.146v-13.808c0-6.101,4.001-11.046,8.938-11.046h47.667c4.937,0,9.396,4.945,9.396,11.046
		V180.351z"/>
	<path opacity="0.6" fill="#3FA9F5" stroke="#000000" stroke-miterlimit="10" d="M436.678,117.351c0,6.1-4.144,11.146-8.383,11.146
		h-40.941c-4.238,0-7.676-5.047-7.676-11.146v-13.808c0-6.101,3.438-11.046,7.676-11.046h40.941c4.239,0,8.383,4.945,8.383,11.046
		V117.351z"/>
	<path opacity="0.6" fill="#3FA9F5" stroke="#000000" stroke-miterlimit="10" d="M361.678,180.351c0,6.1-4.133,11.146-8.373,11.146
		h-40.949c-4.24,0-7.678-5.047-7.678-11.146v-13.808c0-6.101,3.438-11.046,7.678-11.046h40.949c4.24,0,8.373,4.945,8.373,11.046
		V180.351z"/>
	<path opacity="0.6" fill="#3FA9F5" stroke="#000000" stroke-miterlimit="10" d="M566.678,180.351c0,6.1-3.578,11.146-7.703,11.146
		h-39.829c-4.124,0-7.468-5.047-7.468-11.146v-13.808c0-6.101,3.344-11.046,7.468-11.046h39.829c4.125,0,7.703,4.945,7.703,11.046
		V180.351z"/>
	<path opacity="0.6" fill="#3FA9F5" stroke="#000000" stroke-miterlimit="10" d="M448.678,237.071
		c0,5.706-3.943,10.427-8.359,10.427h-42.645c-4.416,0-7.996-4.721-7.996-10.427v-12.916c0-5.706,3.58-10.657,7.996-10.657h42.645
		c4.416,0,8.359,4.951,8.359,10.657V237.071z"/>
	<path opacity="0.6" fill="#3FA9F5" stroke="#000000" stroke-miterlimit="10" d="M114.678,116.351c0,6.1-4.351,11.146-9.055,11.146
		H60.195c-4.704,0-8.518-5.047-8.518-11.146v-13.808c0-6.101,3.813-11.046,8.518-11.046h45.427c4.704,0,9.055,4.945,9.055,11.046
		V116.351z"/>
	<path opacity="0.6" fill="#FF931E" stroke="#000000" stroke-miterlimit="10" d="M380.678,236.351c0,6.1-6.093,11.146-12.822,11.146
		h-64.992c-6.729,0-12.186-5.047-12.186-11.146v-13.808c0-6.101,5.456-11.046,12.186-11.046h64.992
		c6.729,0,12.822,4.945,12.822,11.046V236.351z"/>
	<path opacity="0.6" fill="#FF931E" stroke="#000000" stroke-miterlimit="10" d="M272.678,236.351c0,6.1-3.942,11.146-8.76,11.146
		H217.4c-4.817,0-8.722-5.047-8.722-11.146v-13.808c0-6.101,3.905-11.046,8.722-11.046h46.518c4.817,0,8.76,4.945,8.76,11.046
		V236.351z"/>
	<path opacity="0.6" fill="#3FA9F5" stroke="#000000" stroke-miterlimit="10" d="M507.678,236.351c0,6.1-3.747,11.146-7.698,11.146
		h-38.148c-3.95,0-7.153-5.047-7.153-11.146v-13.808c0-6.101,3.203-11.046,7.153-11.046h38.148c3.951,0,7.698,4.945,7.698,11.046
		V236.351z"/>
	<path opacity="0.6" fill="#3FA9F5" stroke="#000000" stroke-miterlimit="10" d="M565.678,236.351c0,6.1-3.747,11.146-7.698,11.146
		h-38.148c-3.95,0-7.153-5.047-7.153-11.146v-13.808c0-6.101,3.203-11.046,7.153-11.046h38.148c3.951,0,7.698,4.945,7.698,11.046
		V236.351z"/>
	<path opacity="0.6" fill="#3FA9F5" stroke="#000000" stroke-miterlimit="10" d="M624.678,236.351c0,6.1-3.747,11.146-7.698,11.146
		h-38.148c-3.95,0-7.153-5.047-7.153-11.146v-13.808c0-6.101,3.203-11.046,7.153-11.046h38.148c3.951,0,7.698,4.945,7.698,11.046
		V236.351z"/>
</g>
<g id="Layer_1">
	<g>
		<rect x="195.185" y="15.362" fill="none" width="85.659" height="31.008"/>
		<path d="M203.911,15.907c0.527-0.108,1.283-0.168,2.003-0.168c1.115,0,1.835,0.204,2.338,0.66c0.408,0.36,0.636,0.912,0.636,1.535
			c0,1.067-0.671,1.775-1.523,2.063v0.036c0.624,0.216,0.995,0.792,1.187,1.631c0.264,1.127,0.456,1.907,0.624,2.219h-1.08
			c-0.132-0.228-0.312-0.923-0.54-1.931c-0.24-1.115-0.672-1.535-1.619-1.571h-0.983v3.502h-1.043V15.907z M204.954,19.589h1.067
			c1.115,0,1.823-0.612,1.823-1.535c0-1.043-0.755-1.5-1.859-1.511c-0.504,0-0.863,0.048-1.031,0.096V19.589z"/>
		<path d="M215.631,20.932c0,2.146-1.487,3.082-2.89,3.082c-1.571,0-2.783-1.151-2.783-2.986c0-1.943,1.271-3.082,2.878-3.082
			C214.504,17.946,215.631,19.157,215.631,20.932z M211.026,20.992c0,1.271,0.732,2.231,1.763,2.231
			c1.007,0,1.763-0.947,1.763-2.255c0-0.983-0.492-2.23-1.739-2.23C211.566,18.737,211.026,19.889,211.026,20.992z"/>
		<path d="M222.219,20.932c0,2.146-1.487,3.082-2.89,3.082c-1.571,0-2.783-1.151-2.783-2.986c0-1.943,1.271-3.082,2.878-3.082
			C221.092,17.946,222.219,19.157,222.219,20.932z M217.614,20.992c0,1.271,0.732,2.231,1.763,2.231
			c1.007,0,1.763-0.947,1.763-2.255c0-0.983-0.492-2.23-1.739-2.23C218.154,18.737,217.614,19.889,217.614,20.992z"/>
		<path d="M224.826,16.411v1.667h1.511v0.803h-1.511v3.13c0,0.72,0.204,1.127,0.792,1.127c0.276,0,0.479-0.036,0.612-0.072
			l0.048,0.792c-0.204,0.084-0.528,0.144-0.936,0.144c-0.492,0-0.888-0.156-1.14-0.444c-0.3-0.312-0.408-0.828-0.408-1.511v-3.167
			h-0.899v-0.803h0.899v-1.391L224.826,16.411z"/>
		<path d="M234.292,20.092h-3.142v2.915h3.502v0.875h-4.545v-8.083h4.366v0.875h-3.322v2.555h3.142V20.092z"/>
		<path d="M235.974,15.367h1.056v8.515h-1.056V15.367z"/>
		<path d="M239.394,21.172c0.024,1.427,0.936,2.015,1.991,2.015c0.755,0,1.211-0.132,1.607-0.3l0.18,0.756
			c-0.372,0.168-1.007,0.36-1.931,0.36c-1.787,0-2.854-1.175-2.854-2.927c0-1.751,1.032-3.13,2.723-3.13
			c1.895,0,2.399,1.667,2.399,2.734c0,0.216-0.024,0.384-0.036,0.492H239.394z M242.488,20.416c0.012-0.671-0.276-1.715-1.463-1.715
			c-1.067,0-1.535,0.983-1.619,1.715H242.488z"/>
		<path d="M244.818,19.648c0-0.6-0.012-1.091-0.048-1.571h0.923l0.048,0.936h0.036c0.324-0.552,0.864-1.067,1.823-1.067
			c0.792,0,1.392,0.479,1.644,1.163h0.023c0.18-0.324,0.408-0.576,0.647-0.755c0.348-0.264,0.731-0.408,1.283-0.408
			c0.768,0,1.907,0.503,1.907,2.519v3.418h-1.031v-3.286c0-1.115-0.408-1.787-1.26-1.787c-0.6,0-1.067,0.444-1.247,0.959
			c-0.048,0.144-0.084,0.336-0.084,0.528v3.586h-1.032v-3.478c0-0.923-0.407-1.595-1.211-1.595c-0.659,0-1.139,0.528-1.307,1.056
			c-0.06,0.156-0.084,0.335-0.084,0.516v3.502h-1.031V19.648z"/>
		<path d="M255.414,21.172c0.023,1.427,0.936,2.015,1.99,2.015c0.756,0,1.211-0.132,1.607-0.3l0.18,0.756
			c-0.372,0.168-1.008,0.36-1.932,0.36c-1.787,0-2.854-1.175-2.854-2.927c0-1.751,1.031-3.13,2.723-3.13
			c1.895,0,2.398,1.667,2.398,2.734c0,0.216-0.024,0.384-0.036,0.492H255.414z M258.508,20.416c0.012-0.671-0.275-1.715-1.463-1.715
			c-1.068,0-1.535,0.983-1.619,1.715H258.508z"/>
		<path d="M260.838,19.648c0-0.6-0.012-1.091-0.049-1.571h0.936l0.061,0.959h0.023c0.288-0.552,0.96-1.091,1.92-1.091
			c0.803,0,2.051,0.479,2.051,2.47v3.466h-1.057v-3.346c0-0.936-0.348-1.715-1.343-1.715c-0.695,0-1.235,0.492-1.415,1.079
			c-0.048,0.132-0.072,0.312-0.072,0.492v3.49h-1.055V19.648z"/>
		<path d="M268.721,16.411v1.667h1.512v0.803h-1.512v3.13c0,0.72,0.203,1.127,0.791,1.127c0.276,0,0.48-0.036,0.611-0.072
			l0.049,0.792c-0.204,0.084-0.527,0.144-0.936,0.144c-0.492,0-0.888-0.156-1.14-0.444c-0.3-0.312-0.407-0.828-0.407-1.511v-3.167
			h-0.9v-0.803h0.9v-1.391L268.721,16.411z"/>
		<path d="M271.169,19.037c0-0.444,0.3-0.756,0.72-0.756s0.695,0.312,0.707,0.756c0,0.419-0.275,0.744-0.719,0.744
			C271.457,19.781,271.169,19.457,271.169,19.037z M271.169,23.271c0-0.443,0.3-0.755,0.72-0.755s0.695,0.312,0.707,0.755
			c0,0.42-0.275,0.744-0.719,0.744C271.457,24.014,271.169,23.69,271.169,23.271z"/>
		<path d="M219.942,34.768l5.565-2.866v0.828l-4.689,2.351v0.024l4.689,2.351v0.828l-5.565-2.866V34.768z"/>
		<path d="M227.178,29.767h1.056v3.622h0.024c0.168-0.3,0.432-0.563,0.755-0.743c0.312-0.18,0.684-0.3,1.08-0.3
			c0.779,0,2.027,0.479,2.027,2.482v3.454h-1.056v-3.334c0-0.936-0.348-1.727-1.343-1.727c-0.684,0-1.223,0.479-1.415,1.055
			c-0.06,0.144-0.072,0.3-0.072,0.504v3.502h-1.056V29.767z"/>
		<path d="M235.062,30.811v1.667h1.511v0.803h-1.511v3.13c0,0.72,0.204,1.127,0.792,1.127c0.276,0,0.479-0.036,0.611-0.072
			l0.048,0.792c-0.204,0.084-0.528,0.144-0.936,0.144c-0.492,0-0.888-0.156-1.14-0.444c-0.3-0.312-0.408-0.828-0.408-1.511v-3.167
			h-0.899v-0.803h0.899v-1.392L235.062,30.811z"/>
		<path d="M237.762,34.048c0-0.6-0.012-1.091-0.048-1.571h0.923l0.048,0.936h0.036c0.324-0.552,0.864-1.067,1.823-1.067
			c0.792,0,1.391,0.479,1.643,1.163h0.024c0.18-0.324,0.408-0.576,0.647-0.755c0.348-0.264,0.731-0.408,1.283-0.408
			c0.768,0,1.907,0.503,1.907,2.519v3.418h-1.032v-3.286c0-1.115-0.408-1.787-1.259-1.787c-0.6,0-1.067,0.444-1.247,0.959
			c-0.048,0.144-0.084,0.336-0.084,0.528v3.586h-1.031v-3.478c0-0.923-0.408-1.595-1.211-1.595c-0.66,0-1.14,0.528-1.308,1.056
			c-0.06,0.156-0.084,0.335-0.084,0.516v3.502h-1.031V34.048z"/>
		<path d="M247.77,29.767h1.056v8.515h-1.056V29.767z"/>
		<path d="M256.082,35.428l-5.564,2.854v-0.828l4.726-2.351V35.08l-4.726-2.351v-0.828l5.564,2.854V35.428z"/>
	</g>
	<g>
		<rect x="39.852" y="97.037" fill="none" width="85.659" height="31.008"/>
		<path d="M65.861,101.767h-3.142v2.915h3.502v0.875h-4.545v-8.083h4.365v0.875h-3.322v2.555h3.142V101.767z"/>
		<path d="M67.543,97.042h1.056v8.515h-1.056V97.042z"/>
		<path d="M70.963,102.846c0.024,1.427,0.935,2.015,1.991,2.015c0.755,0,1.211-0.132,1.607-0.3l0.18,0.756
			c-0.372,0.168-1.007,0.36-1.931,0.36c-1.787,0-2.854-1.175-2.854-2.927c0-1.751,1.032-3.13,2.723-3.13
			c1.895,0,2.399,1.667,2.399,2.734c0,0.216-0.024,0.384-0.036,0.492H70.963z M74.057,102.09c0.012-0.671-0.276-1.715-1.463-1.715
			c-1.067,0-1.535,0.983-1.619,1.715H74.057z"/>
		<path d="M76.387,101.323c0-0.6-0.012-1.091-0.048-1.571h0.923l0.048,0.936h0.036c0.324-0.552,0.864-1.067,1.823-1.067
			c0.792,0,1.391,0.479,1.643,1.163h0.024c0.18-0.324,0.408-0.576,0.647-0.755c0.348-0.264,0.731-0.408,1.283-0.408
			c0.768,0,1.907,0.503,1.907,2.519v3.418h-1.032v-3.286c0-1.115-0.408-1.787-1.259-1.787c-0.6,0-1.067,0.444-1.247,0.959
			c-0.048,0.144-0.084,0.336-0.084,0.528v3.586h-1.031v-3.478c0-0.923-0.408-1.595-1.211-1.595c-0.66,0-1.14,0.528-1.308,1.056
			c-0.06,0.156-0.084,0.335-0.084,0.516v3.502h-1.031V101.323z"/>
		<path d="M86.982,102.846c0.024,1.427,0.935,2.015,1.991,2.015c0.755,0,1.211-0.132,1.607-0.3l0.18,0.756
			c-0.372,0.168-1.007,0.36-1.931,0.36c-1.787,0-2.854-1.175-2.854-2.927c0-1.751,1.032-3.13,2.723-3.13
			c1.895,0,2.399,1.667,2.399,2.734c0,0.216-0.024,0.384-0.036,0.492H86.982z M90.077,102.09c0.012-0.671-0.276-1.715-1.463-1.715
			c-1.067,0-1.535,0.983-1.619,1.715H90.077z"/>
		<path d="M92.406,101.323c0-0.6-0.012-1.091-0.048-1.571h0.936l0.06,0.959h0.024c0.288-0.552,0.959-1.091,1.919-1.091
			c0.803,0,2.051,0.479,2.051,2.47v3.466h-1.056v-3.346c0-0.936-0.348-1.715-1.343-1.715c-0.695,0-1.235,0.492-1.415,1.079
			c-0.048,0.132-0.072,0.312-0.072,0.492v3.49h-1.056V101.323z"/>
		<path d="M100.29,98.085v1.667h1.511v0.803h-1.511v3.13c0,0.72,0.204,1.127,0.792,1.127c0.276,0,0.479-0.036,0.611-0.072
			l0.048,0.792c-0.204,0.084-0.528,0.144-0.936,0.144c-0.492,0-0.888-0.156-1.14-0.444c-0.3-0.312-0.408-0.828-0.408-1.511v-3.167
			h-0.899v-0.803h0.899v-1.391L100.29,98.085z"/>
		<path d="M102.738,100.711c0-0.444,0.3-0.756,0.72-0.756s0.696,0.312,0.708,0.756c0,0.419-0.276,0.744-0.72,0.744
			C103.026,101.455,102.738,101.131,102.738,100.711z M102.738,104.945c0-0.443,0.3-0.755,0.72-0.755s0.696,0.312,0.708,0.755
			c0,0.42-0.276,0.744-0.72,0.744C103.026,105.688,102.738,105.365,102.738,104.945z"/>
		<path d="M63.709,116.442l5.565-2.866v0.828l-4.689,2.351v0.024l4.689,2.351v0.828l-5.565-2.866V116.442z"/>
		<path d="M70.945,111.441H72v3.622h0.024c0.168-0.3,0.432-0.563,0.755-0.743c0.312-0.18,0.684-0.3,1.08-0.3
			c0.779,0,2.027,0.479,2.027,2.482v3.454h-1.056v-3.334c0-0.936-0.348-1.727-1.343-1.727c-0.684,0-1.223,0.479-1.415,1.055
			c-0.06,0.144-0.072,0.3-0.072,0.504v3.502h-1.056V111.441z"/>
		<path d="M78.192,117.246c0.024,1.427,0.935,2.015,1.991,2.015c0.755,0,1.211-0.132,1.607-0.3l0.18,0.756
			c-0.372,0.168-1.007,0.36-1.931,0.36c-1.787,0-2.854-1.176-2.854-2.927s1.032-3.13,2.723-3.13c1.895,0,2.399,1.667,2.399,2.734
			c0,0.216-0.024,0.384-0.036,0.492H78.192z M81.287,116.49c0.012-0.671-0.276-1.715-1.463-1.715c-1.067,0-1.535,0.983-1.619,1.715
			H81.287z"/>
		<path d="M86.831,119.957l-0.084-0.731H86.71c-0.324,0.456-0.947,0.863-1.775,0.863c-1.175,0-1.775-0.828-1.775-1.667
			c0-1.403,1.247-2.171,3.49-2.159v-0.12c0-0.479-0.132-1.343-1.319-1.343c-0.54,0-1.104,0.168-1.511,0.432l-0.24-0.695
			c0.48-0.312,1.175-0.516,1.907-0.516c1.775,0,2.207,1.211,2.207,2.375v2.171c0,0.503,0.024,0.995,0.096,1.391H86.831z
			 M86.674,116.994c-1.151-0.024-2.458,0.18-2.458,1.307c0,0.684,0.456,1.008,0.996,1.008c0.755,0,1.235-0.48,1.403-0.972
			c0.036-0.108,0.06-0.228,0.06-0.336V116.994z"/>
		<path d="M94.414,111.441v7.016c0,0.516,0.012,1.103,0.048,1.499h-0.947l-0.048-1.007h-0.024c-0.324,0.647-1.032,1.139-1.979,1.139
			c-1.403,0-2.483-1.188-2.483-2.95c-0.012-1.931,1.188-3.118,2.603-3.118c0.888,0,1.487,0.419,1.751,0.887h0.024v-3.466H94.414z
			 M93.358,116.515c0-0.132-0.012-0.312-0.048-0.444c-0.156-0.672-0.731-1.224-1.523-1.224c-1.091,0-1.739,0.959-1.739,2.243
			c0,1.175,0.576,2.146,1.715,2.146c0.708,0,1.355-0.468,1.547-1.259c0.036-0.144,0.048-0.288,0.048-0.456V116.515z"/>
		<path d="M101.649,117.102l-5.565,2.854v-0.828l4.726-2.351v-0.024l-4.726-2.351v-0.828l5.565,2.854V117.102z"/>
	</g>
	<g>
		<rect x="366.294" y="98.688" fill="none" width="85.659" height="31.008"/>
		<path d="M392.303,103.418h-3.142v2.915h3.502v0.875h-4.546v-8.083h4.366V100h-3.322v2.555h3.142V103.418z"/>
		<path d="M393.985,98.693h1.056v8.515h-1.056V98.693z"/>
		<path d="M397.405,104.498c0.024,1.427,0.936,2.015,1.991,2.015c0.755,0,1.211-0.132,1.606-0.3l0.181,0.756
			c-0.373,0.168-1.008,0.36-1.932,0.36c-1.787,0-2.854-1.175-2.854-2.927c0-1.751,1.032-3.13,2.723-3.13
			c1.896,0,2.399,1.667,2.399,2.734c0,0.216-0.025,0.384-0.037,0.492H397.405z M400.5,103.742c0.012-0.671-0.276-1.715-1.464-1.715
			c-1.067,0-1.535,0.983-1.619,1.715H400.5z"/>
		<path d="M402.829,102.974c0-0.6-0.012-1.091-0.048-1.571h0.924l0.047,0.936h0.037c0.323-0.552,0.863-1.067,1.822-1.067
			c0.792,0,1.392,0.479,1.644,1.163h0.024c0.18-0.324,0.407-0.576,0.646-0.755c0.348-0.264,0.732-0.408,1.283-0.408
			c0.768,0,1.908,0.503,1.908,2.519v3.418h-1.032v-3.286c0-1.115-0.407-1.787-1.259-1.787c-0.6,0-1.068,0.444-1.248,0.959
			c-0.047,0.144-0.084,0.336-0.084,0.528v3.586h-1.031v-3.478c0-0.923-0.408-1.595-1.211-1.595c-0.66,0-1.14,0.528-1.308,1.056
			c-0.06,0.156-0.084,0.335-0.084,0.516v3.502h-1.031V102.974z"/>
		<path d="M413.425,104.498c0.024,1.427,0.936,2.015,1.991,2.015c0.755,0,1.211-0.132,1.606-0.3l0.181,0.756
			c-0.373,0.168-1.008,0.36-1.932,0.36c-1.787,0-2.854-1.175-2.854-2.927c0-1.751,1.032-3.13,2.723-3.13
			c1.896,0,2.399,1.667,2.399,2.734c0,0.216-0.025,0.384-0.037,0.492H413.425z M416.52,103.742c0.012-0.671-0.276-1.715-1.464-1.715
			c-1.067,0-1.535,0.983-1.619,1.715H416.52z"/>
		<path d="M418.849,102.974c0-0.6-0.012-1.091-0.048-1.571h0.936l0.06,0.959h0.024c0.287-0.552,0.959-1.091,1.919-1.091
			c0.804,0,2.051,0.479,2.051,2.47v3.466h-1.056v-3.346c0-0.936-0.348-1.715-1.344-1.715c-0.695,0-1.234,0.492-1.414,1.079
			c-0.049,0.132-0.072,0.312-0.072,0.492v3.49h-1.056V102.974z"/>
		<path d="M426.732,99.736v1.667h1.511v0.803h-1.511v3.13c0,0.72,0.203,1.127,0.791,1.127c0.275,0,0.479-0.036,0.611-0.072
			l0.049,0.792c-0.205,0.084-0.528,0.144-0.936,0.144c-0.492,0-0.889-0.156-1.141-0.444c-0.299-0.312-0.407-0.828-0.407-1.511
			v-3.167h-0.899v-0.803h0.899v-1.391L426.732,99.736z"/>
		<path d="M429.18,102.363c0-0.444,0.301-0.756,0.721-0.756s0.695,0.312,0.707,0.756c0,0.419-0.275,0.744-0.72,0.744
			C429.469,103.106,429.18,102.782,429.18,102.363z M429.18,106.596c0-0.443,0.301-0.755,0.721-0.755s0.695,0.312,0.707,0.755
			c0,0.42-0.275,0.744-0.72,0.744C429.469,107.34,429.18,107.016,429.18,106.596z"/>
		<path d="M389.846,118.094l5.564-2.866v0.828l-4.689,2.351v0.024l4.689,2.351v0.828l-5.564-2.866V118.094z"/>
		<path d="M397.033,121.608c0.023-0.396,0.048-0.983,0.048-1.499v-7.016h1.044v3.646h0.023c0.372-0.648,1.043-1.067,1.979-1.067
			c1.439,0,2.459,1.199,2.447,2.962c0,2.075-1.308,3.106-2.603,3.106c-0.84,0-1.511-0.324-1.943-1.091h-0.036l-0.047,0.959H397.033z
			 M398.125,119.281c0,0.132,0.023,0.264,0.047,0.384c0.205,0.731,0.816,1.235,1.584,1.235c1.104,0,1.763-0.899,1.763-2.231
			c0-1.163-0.6-2.159-1.728-2.159c-0.719,0-1.391,0.492-1.606,1.295c-0.024,0.12-0.06,0.264-0.06,0.432V119.281z"/>
		<path d="M409.162,118.658c0,2.146-1.487,3.082-2.891,3.082c-1.571,0-2.783-1.151-2.783-2.986c0-1.943,1.271-3.082,2.879-3.082
			C408.035,115.671,409.162,116.882,409.162,118.658z M404.557,118.717c0,1.271,0.731,2.231,1.763,2.231
			c1.007,0,1.763-0.947,1.763-2.255c0-0.983-0.491-2.23-1.738-2.23C405.096,116.463,404.557,117.614,404.557,118.717z"/>
		<path d="M415.51,113.093v7.016c0,0.516,0.012,1.103,0.048,1.499h-0.947l-0.048-1.007h-0.023c-0.324,0.647-1.032,1.139-1.979,1.139
			c-1.403,0-2.483-1.188-2.483-2.95c-0.012-1.931,1.188-3.118,2.604-3.118c0.887,0,1.486,0.419,1.751,0.887h0.024v-3.466H415.51z
			 M414.455,118.166c0-0.132-0.013-0.312-0.049-0.444c-0.156-0.672-0.731-1.224-1.523-1.224c-1.091,0-1.738,0.959-1.738,2.243
			c0,1.175,0.575,2.146,1.715,2.146c0.707,0,1.355-0.468,1.547-1.259c0.036-0.144,0.049-0.288,0.049-0.456V118.166z"/>
		<path d="M417.648,115.803l1.271,3.43c0.132,0.384,0.275,0.839,0.371,1.187h0.024c0.108-0.348,0.228-0.792,0.372-1.211l1.151-3.406
			h1.115l-1.583,4.138c-0.756,1.991-1.271,3.01-1.991,3.634c-0.516,0.456-1.031,0.636-1.295,0.684l-0.265-0.887
			c0.265-0.084,0.612-0.252,0.924-0.516c0.288-0.228,0.648-0.635,0.888-1.175c0.048-0.108,0.084-0.192,0.084-0.251
			c0-0.06-0.024-0.144-0.071-0.276l-2.147-5.349H417.648z"/>
		<path d="M428.397,118.753l-5.565,2.854v-0.828l4.727-2.351v-0.024l-4.727-2.351v-0.828l5.565,2.854V118.753z"/>
	</g>
	<g>
		<rect x="385.589" y="220.044" fill="none" width="67.651" height="27.698"/>
		<path d="M402.594,224.775h-3.142v2.914h3.502v0.875h-4.546v-8.083h4.366v0.876h-3.322v2.555h3.142V224.775z"/>
		<path d="M404.276,220.049h1.056v8.515h-1.056V220.049z"/>
		<path d="M407.696,225.854c0.024,1.427,0.936,2.015,1.991,2.015c0.755,0,1.211-0.132,1.606-0.3l0.181,0.756
			c-0.373,0.168-1.008,0.36-1.932,0.36c-1.787,0-2.854-1.176-2.854-2.928c0-1.75,1.032-3.129,2.723-3.129
			c1.896,0,2.399,1.666,2.399,2.734c0,0.215-0.025,0.383-0.037,0.491H407.696z M410.791,225.098
			c0.012-0.671-0.276-1.715-1.464-1.715c-1.067,0-1.535,0.983-1.619,1.715H410.791z"/>
		<path d="M413.12,224.331c0-0.6-0.012-1.091-0.048-1.571h0.924l0.047,0.936h0.037c0.323-0.551,0.863-1.066,1.822-1.066
			c0.792,0,1.392,0.479,1.644,1.162h0.024c0.18-0.323,0.407-0.575,0.646-0.755c0.348-0.265,0.732-0.407,1.283-0.407
			c0.768,0,1.908,0.503,1.908,2.518v3.418h-1.032v-3.285c0-1.115-0.407-1.787-1.259-1.787c-0.6,0-1.068,0.443-1.248,0.959
			c-0.047,0.145-0.084,0.336-0.084,0.527v3.586h-1.031v-3.478c0-0.923-0.408-1.595-1.211-1.595c-0.66,0-1.14,0.527-1.308,1.055
			c-0.06,0.156-0.084,0.336-0.084,0.516v3.502h-1.031V224.331z"/>
		<path d="M423.716,225.854c0.024,1.427,0.936,2.015,1.991,2.015c0.755,0,1.211-0.132,1.606-0.3l0.181,0.756
			c-0.373,0.168-1.008,0.36-1.932,0.36c-1.787,0-2.854-1.176-2.854-2.928c0-1.75,1.032-3.129,2.723-3.129
			c1.896,0,2.399,1.666,2.399,2.734c0,0.215-0.025,0.383-0.037,0.491H423.716z M426.811,225.098
			c0.012-0.671-0.276-1.715-1.464-1.715c-1.067,0-1.535,0.983-1.619,1.715H426.811z"/>
		<path d="M429.14,224.331c0-0.6-0.012-1.091-0.048-1.571h0.936l0.06,0.96h0.024c0.287-0.552,0.959-1.091,1.919-1.091
			c0.804,0,2.051,0.479,2.051,2.47v3.466h-1.056v-3.346c0-0.936-0.348-1.715-1.344-1.715c-0.695,0-1.234,0.492-1.414,1.079
			c-0.049,0.132-0.072,0.312-0.072,0.491v3.49h-1.056V224.331z"/>
		<path d="M437.023,221.093v1.666h1.511v0.804h-1.511v3.13c0,0.721,0.203,1.128,0.791,1.128c0.275,0,0.479-0.036,0.611-0.071
			l0.049,0.791c-0.205,0.084-0.528,0.145-0.936,0.145c-0.492,0-0.889-0.156-1.141-0.444c-0.299-0.312-0.407-0.827-0.407-1.511
			v-3.167h-0.899v-0.804h0.899v-1.391L437.023,221.093z"/>
		<path d="M439.471,223.719c0-0.444,0.301-0.756,0.721-0.756s0.695,0.312,0.707,0.756c0,0.419-0.275,0.743-0.72,0.743
			C439.76,224.462,439.471,224.138,439.471,223.719z M439.471,227.953c0-0.443,0.301-0.756,0.721-0.756s0.695,0.312,0.707,0.756
			c0,0.42-0.275,0.744-0.72,0.744C439.76,228.697,439.471,228.373,439.471,227.953z"/>
		<path d="M410.162,239.451l5.565-2.867v0.828l-4.689,2.351v0.024l4.689,2.35v0.828l-5.565-2.866V239.451z"/>
		<path d="M420.613,242.964l-0.084-0.731h-0.037c-0.323,0.456-0.947,0.863-1.774,0.863c-1.175,0-1.774-0.827-1.774-1.667
			c0-1.403,1.246-2.171,3.489-2.158v-0.121c0-0.479-0.132-1.343-1.319-1.343c-0.539,0-1.104,0.168-1.511,0.432l-0.24-0.695
			c0.479-0.312,1.176-0.516,1.907-0.516c1.775,0,2.207,1.211,2.207,2.374v2.172c0,0.503,0.023,0.994,0.096,1.391H420.613z
			 M420.457,240.001c-1.151-0.023-2.459,0.18-2.459,1.308c0,0.684,0.456,1.008,0.996,1.008c0.755,0,1.234-0.479,1.402-0.972
			c0.036-0.107,0.061-0.229,0.061-0.336V240.001z"/>
		<path d="M428.663,240.11l-5.565,2.854v-0.828l4.727-2.35v-0.024l-4.727-2.351v-0.828l5.565,2.855V240.11z"/>
	</g>
	<g>
		<rect x="204.364" y="162.329" fill="none" width="71.286" height="30.025"/>
		<path d="M223.187,167.058h-3.142v2.915h3.502v0.876h-4.545v-8.084h4.366v0.875h-3.322v2.555h3.142V167.058z"/>
		<path d="M224.869,162.333h1.056v8.516h-1.056V162.333z"/>
		<path d="M228.289,168.138c0.024,1.428,0.936,2.015,1.991,2.015c0.755,0,1.211-0.132,1.607-0.3l0.18,0.756
			c-0.372,0.168-1.007,0.359-1.931,0.359c-1.787,0-2.854-1.176-2.854-2.926c0-1.752,1.032-3.131,2.723-3.131
			c1.895,0,2.399,1.668,2.399,2.734c0,0.217-0.024,0.385-0.036,0.492H228.289z M231.383,167.382
			c0.012-0.672-0.276-1.715-1.463-1.715c-1.067,0-1.535,0.983-1.619,1.715H231.383z"/>
		<path d="M233.713,166.615c0-0.6-0.012-1.092-0.048-1.57h0.923l0.048,0.936h0.036c0.324-0.553,0.864-1.068,1.823-1.068
			c0.792,0,1.391,0.48,1.643,1.164h0.024c0.18-0.324,0.408-0.576,0.647-0.756c0.348-0.264,0.731-0.408,1.283-0.408
			c0.768,0,1.907,0.504,1.907,2.52v3.418h-1.032v-3.287c0-1.115-0.408-1.787-1.259-1.787c-0.6,0-1.067,0.444-1.247,0.96
			c-0.048,0.144-0.084,0.336-0.084,0.528v3.586h-1.032v-3.479c0-0.924-0.408-1.596-1.211-1.596c-0.66,0-1.14,0.528-1.308,1.057
			c-0.06,0.155-0.084,0.335-0.084,0.516v3.502h-1.031V166.615z"/>
		<path d="M244.309,168.138c0.024,1.428,0.936,2.015,1.991,2.015c0.755,0,1.211-0.132,1.607-0.3l0.18,0.756
			c-0.371,0.168-1.007,0.359-1.931,0.359c-1.787,0-2.854-1.176-2.854-2.926c0-1.752,1.032-3.131,2.723-3.131
			c1.895,0,2.398,1.668,2.398,2.734c0,0.217-0.023,0.385-0.035,0.492H244.309z M247.402,167.382
			c0.012-0.672-0.275-1.715-1.463-1.715c-1.067,0-1.535,0.983-1.619,1.715H247.402z"/>
		<path d="M249.732,166.615c0-0.6-0.012-1.092-0.048-1.57h0.936l0.06,0.959h0.024c0.288-0.552,0.96-1.092,1.919-1.092
			c0.803,0,2.051,0.48,2.051,2.471v3.467h-1.056v-3.347c0-0.936-0.348-1.715-1.343-1.715c-0.695,0-1.236,0.491-1.416,1.079
			c-0.047,0.132-0.071,0.312-0.071,0.492v3.49h-1.056V166.615z"/>
		<path d="M257.615,163.376v1.668h1.512v0.803h-1.512v3.131c0,0.719,0.204,1.127,0.792,1.127c0.276,0,0.479-0.036,0.611-0.072
			l0.048,0.792c-0.203,0.084-0.527,0.144-0.936,0.144c-0.491,0-0.887-0.156-1.139-0.443c-0.301-0.312-0.408-0.828-0.408-1.512
			v-3.166h-0.899v-0.803h0.899v-1.393L257.615,163.376z"/>
		<path d="M260.064,166.003c0-0.443,0.299-0.756,0.719-0.756s0.696,0.312,0.708,0.756c0,0.42-0.276,0.744-0.72,0.744
			C260.352,166.748,260.064,166.423,260.064,166.003z M260.064,170.237c0-0.444,0.299-0.755,0.719-0.755s0.696,0.311,0.708,0.755
			c0,0.42-0.276,0.743-0.72,0.743C260.352,170.98,260.064,170.657,260.064,170.237z"/>
		<path d="M227.239,181.734l5.565-2.865v0.827l-4.689,2.351v0.023l4.689,2.352v0.827l-5.565-2.866V181.734z"/>
		<path d="M234.475,176.734h1.056v3.621h0.024c0.168-0.3,0.432-0.563,0.755-0.743c0.312-0.181,0.684-0.3,1.08-0.3
			c0.779,0,2.027,0.479,2.027,2.482v3.454h-1.056v-3.334c0-0.936-0.348-1.728-1.343-1.728c-0.684,0-1.223,0.48-1.415,1.056
			c-0.06,0.144-0.072,0.3-0.072,0.504v3.502h-1.056V176.734z"/>
		<path d="M243.09,178.437h-0.024l-1.355,0.73l-0.204-0.803l1.703-0.912h0.9v7.796h-1.02V178.437z"/>
		<path d="M252.771,182.394l-5.564,2.854v-0.827l4.726-2.352v-0.023l-4.726-2.351v-0.827l5.564,2.854V182.394z"/>
	</g>
	<g>
		<rect x="302.045" y="162.004" fill="none" width="61.629" height="29.457"/>
		<path d="M316.039,166.734h-3.143v2.915h3.502v0.876h-4.545v-8.084h4.365v0.875h-3.322v2.555h3.143V166.734z"/>
		<path d="M317.721,162.009h1.057v8.516h-1.057V162.009z"/>
		<path d="M321.141,167.814c0.024,1.428,0.936,2.015,1.991,2.015c0.755,0,1.212-0.132,1.606-0.3l0.181,0.756
			c-0.372,0.168-1.007,0.359-1.931,0.359c-1.787,0-2.855-1.175-2.855-2.926c0-1.752,1.032-3.131,2.723-3.131
			c1.896,0,2.399,1.668,2.399,2.734c0,0.217-0.024,0.385-0.036,0.492H321.141z M324.235,167.058
			c0.012-0.672-0.276-1.715-1.464-1.715c-1.066,0-1.535,0.983-1.619,1.715H324.235z"/>
		<path d="M326.564,166.291c0-0.6-0.012-1.092-0.047-1.57h0.923l0.048,0.936h0.036c0.323-0.553,0.864-1.068,1.823-1.068
			c0.791,0,1.391,0.48,1.643,1.164h0.024c0.18-0.324,0.407-0.576,0.647-0.756c0.348-0.264,0.731-0.408,1.283-0.408
			c0.768,0,1.907,0.504,1.907,2.52v3.418h-1.032v-3.287c0-1.115-0.407-1.787-1.259-1.787c-0.6,0-1.067,0.444-1.247,0.96
			c-0.048,0.144-0.084,0.336-0.084,0.528v3.586h-1.031v-3.479c0-0.924-0.408-1.596-1.211-1.596c-0.66,0-1.141,0.528-1.309,1.057
			c-0.059,0.155-0.084,0.335-0.084,0.516v3.502h-1.031V166.291z"/>
		<path d="M337.16,167.814c0.024,1.428,0.936,2.015,1.991,2.015c0.755,0,1.212-0.132,1.606-0.3l0.181,0.756
			c-0.372,0.168-1.007,0.359-1.931,0.359c-1.787,0-2.855-1.175-2.855-2.926c0-1.752,1.032-3.131,2.723-3.131
			c1.896,0,2.399,1.668,2.399,2.734c0,0.217-0.024,0.385-0.036,0.492H337.16z M340.255,167.058c0.012-0.672-0.276-1.715-1.464-1.715
			c-1.066,0-1.535,0.983-1.619,1.715H340.255z"/>
		<path d="M342.584,166.291c0-0.6-0.012-1.092-0.047-1.57h0.936l0.059,0.959h0.025c0.287-0.552,0.959-1.092,1.918-1.092
			c0.804,0,2.051,0.48,2.051,2.471v3.467h-1.055v-3.347c0-0.936-0.348-1.715-1.344-1.715c-0.695,0-1.235,0.491-1.415,1.079
			c-0.048,0.132-0.071,0.312-0.071,0.492v3.49h-1.057V166.291z"/>
		<path d="M350.468,163.052v1.668h1.511v0.803h-1.511v3.131c0,0.719,0.204,1.127,0.792,1.127c0.275,0,0.479-0.036,0.611-0.072
			l0.048,0.792c-0.204,0.084-0.528,0.144-0.936,0.144c-0.491,0-0.888-0.156-1.14-0.443c-0.3-0.312-0.408-0.828-0.408-1.512v-3.166
			h-0.898v-0.803h0.898v-1.392L350.468,163.052z"/>
		<path d="M352.916,165.679c0-0.443,0.3-0.756,0.72-0.756s0.696,0.312,0.708,0.756c0,0.42-0.276,0.744-0.721,0.744
			C353.204,166.423,352.916,166.099,352.916,165.679z M352.916,169.913c0-0.443,0.3-0.755,0.72-0.755s0.696,0.312,0.708,0.755
			c0,0.42-0.276,0.743-0.721,0.743C353.204,170.656,352.916,170.333,352.916,169.913z"/>
		<path d="M323.085,181.41l5.565-2.865v0.827l-4.689,2.351v0.023l4.689,2.352v0.827l-5.565-2.866V181.41z"/>
		<path d="M330.32,181.015c0-0.744-0.023-1.344-0.047-1.896h0.947l0.047,0.995h0.025c0.432-0.707,1.115-1.127,2.062-1.127
			c1.402,0,2.459,1.188,2.459,2.95c0,2.087-1.271,3.118-2.639,3.118c-0.768,0-1.439-0.336-1.787-0.912h-0.024v3.154h-1.044V181.015z
			 M331.364,182.562c0,0.155,0.024,0.299,0.048,0.432c0.191,0.731,0.828,1.234,1.584,1.234c1.115,0,1.762-0.91,1.762-2.242
			c0-1.163-0.611-2.158-1.727-2.158c-0.72,0-1.391,0.516-1.596,1.307c-0.035,0.132-0.071,0.288-0.071,0.432V182.562z"/>
		<path d="M342.629,182.07l-5.564,2.854v-0.827l4.726-2.352v-0.023l-4.726-2.351v-0.827l5.564,2.854V182.07z"/>
	</g>
	<g>
		<rect x="496.342" y="162.231" fill="none" width="85.658" height="31.008"/>
		<path d="M522.351,166.962h-3.142v2.914h3.502v0.875h-4.546v-8.083h4.365v0.876h-3.321v2.555h3.142V166.962z"/>
		<path d="M524.033,162.237h1.055v8.515h-1.055V162.237z"/>
		<path d="M527.453,168.042c0.023,1.427,0.935,2.015,1.99,2.015c0.756,0,1.211-0.132,1.607-0.3l0.18,0.756
			c-0.372,0.168-1.008,0.36-1.932,0.36c-1.787,0-2.854-1.176-2.854-2.928c0-1.75,1.031-3.129,2.723-3.129
			c1.895,0,2.398,1.666,2.398,2.734c0,0.215-0.024,0.383-0.036,0.491H527.453z M530.547,167.286
			c0.012-0.671-0.275-1.715-1.463-1.715c-1.068,0-1.535,0.983-1.619,1.715H530.547z"/>
		<path d="M532.877,166.518c0-0.6-0.013-1.091-0.049-1.571h0.924l0.048,0.936h0.036c0.324-0.551,0.863-1.066,1.823-1.066
			c0.792,0,1.392,0.479,1.644,1.162h0.023c0.18-0.323,0.408-0.575,0.647-0.755c0.348-0.265,0.731-0.407,1.283-0.407
			c0.768,0,1.907,0.503,1.907,2.518v3.418h-1.031v-3.285c0-1.115-0.408-1.787-1.26-1.787c-0.6,0-1.067,0.443-1.247,0.959
			c-0.048,0.145-0.084,0.336-0.084,0.527v3.586h-1.031v-3.478c0-0.923-0.408-1.595-1.212-1.595c-0.659,0-1.139,0.527-1.307,1.055
			c-0.061,0.156-0.084,0.336-0.084,0.516v3.502h-1.031V166.518z"/>
		<path d="M543.473,168.042c0.023,1.427,0.935,2.015,1.99,2.015c0.756,0,1.211-0.132,1.607-0.3l0.18,0.756
			c-0.372,0.168-1.008,0.36-1.932,0.36c-1.787,0-2.854-1.176-2.854-2.928c0-1.75,1.031-3.129,2.723-3.129
			c1.895,0,2.398,1.666,2.398,2.734c0,0.215-0.024,0.383-0.036,0.491H543.473z M546.566,167.286
			c0.012-0.671-0.275-1.715-1.463-1.715c-1.068,0-1.535,0.983-1.619,1.715H546.566z"/>
		<path d="M548.896,166.518c0-0.6-0.013-1.091-0.049-1.571h0.936l0.061,0.96h0.023c0.288-0.552,0.96-1.091,1.92-1.091
			c0.803,0,2.051,0.479,2.051,2.47v3.466h-1.057v-3.346c0-0.936-0.348-1.715-1.343-1.715c-0.695,0-1.235,0.492-1.415,1.079
			c-0.048,0.132-0.072,0.312-0.072,0.491v3.49h-1.055V166.518z"/>
		<path d="M556.779,163.281v1.666h1.512v0.804h-1.512v3.13c0,0.721,0.204,1.128,0.792,1.128c0.276,0,0.479-0.036,0.611-0.071
			l0.048,0.791c-0.203,0.084-0.527,0.145-0.936,0.145c-0.491,0-0.887-0.156-1.139-0.444c-0.301-0.312-0.408-0.827-0.408-1.511
			v-3.167h-0.899v-0.804h0.899v-1.391L556.779,163.281z"/>
		<path d="M559.229,165.907c0-0.444,0.299-0.756,0.719-0.756s0.696,0.312,0.708,0.756c0,0.419-0.276,0.743-0.72,0.743
			C559.516,166.65,559.229,166.326,559.229,165.907z M559.229,170.14c0-0.443,0.299-0.756,0.719-0.756s0.696,0.312,0.708,0.756
			c0,0.42-0.276,0.744-0.72,0.744C559.516,170.884,559.229,170.56,559.229,170.14z"/>
		<path d="M528.101,181.638l5.565-2.867v0.828l-4.689,2.351v0.024l4.689,2.35v0.828l-5.565-2.866V181.638z"/>
		<path d="M540.59,182.202c0,2.146-1.487,3.082-2.891,3.082c-1.571,0-2.783-1.151-2.783-2.986c0-1.942,1.271-3.082,2.879-3.082
			C539.463,179.215,540.59,180.426,540.59,182.202z M535.984,182.261c0,1.271,0.731,2.23,1.763,2.23
			c1.007,0,1.763-0.947,1.763-2.254c0-0.984-0.491-2.23-1.738-2.23C536.523,180.007,535.984,181.158,535.984,182.261z"/>
		<path d="M541.924,176.636h1.057v8.516h-1.057V176.636z"/>
		<path d="M550.237,182.297l-5.565,2.854v-0.828l4.727-2.35v-0.024l-4.727-2.351v-0.828l5.565,2.855V182.297z"/>
	</g>
	<g>
		<rect x="198.108" y="216.059" fill="none" width="85.659" height="31.008"/>
		<path d="M231.757,217.382h-2.459v-0.887h5.985v0.887h-2.471v7.196h-1.055V217.382z"/>
		<path d="M235.885,221.869c0.024,1.427,0.935,2.014,1.991,2.014c0.755,0,1.211-0.131,1.607-0.299l0.18,0.756
			c-0.372,0.168-1.007,0.359-1.931,0.359c-1.787,0-2.854-1.176-2.854-2.927s1.032-3.13,2.723-3.13c1.895,0,2.399,1.667,2.399,2.734
			c0,0.216-0.024,0.384-0.036,0.492H235.885z M238.979,221.113c0.012-0.672-0.276-1.715-1.463-1.715
			c-1.067,0-1.535,0.982-1.619,1.715H238.979z"/>
		<path d="M241.765,218.774l0.828,1.247c0.216,0.324,0.396,0.624,0.588,0.947h0.036c0.192-0.348,0.384-0.647,0.576-0.959
			l0.815-1.235h1.14l-1.979,2.806l2.039,2.999h-1.2l-0.852-1.308c-0.228-0.336-0.419-0.659-0.624-1.008h-0.024
			c-0.192,0.349-0.396,0.66-0.612,1.008l-0.839,1.308h-1.163l2.062-2.962l-1.967-2.843H241.765z"/>
		<path d="M248.257,217.107v1.667h1.511v0.804h-1.511v3.13c0,0.72,0.204,1.128,0.792,1.128c0.275,0,0.479-0.037,0.611-0.072
			l0.048,0.791c-0.204,0.084-0.528,0.145-0.936,0.145c-0.491,0-0.888-0.156-1.14-0.443c-0.3-0.312-0.408-0.828-0.408-1.512v-3.166
			h-0.899v-0.804h0.899v-1.392L248.257,217.107z"/>
		<path d="M250.705,219.734c0-0.444,0.3-0.756,0.72-0.756s0.696,0.312,0.708,0.756c0,0.419-0.276,0.743-0.721,0.743
			C250.993,220.477,250.705,220.153,250.705,219.734z M250.705,223.966c0-0.443,0.3-0.755,0.72-0.755s0.696,0.312,0.708,0.755
			c0,0.42-0.276,0.744-0.721,0.744C250.993,224.71,250.705,224.386,250.705,223.966z"/>
		<path d="M222.308,230.463h1.056v3.622h0.024c0.168-0.301,0.432-0.564,0.755-0.744c0.312-0.18,0.684-0.299,1.08-0.299
			c0.779,0,2.027,0.479,2.027,2.482v3.453h-1.056v-3.334c0-0.936-0.348-1.727-1.343-1.727c-0.684,0-1.223,0.479-1.415,1.055
			c-0.06,0.145-0.072,0.301-0.072,0.504v3.502h-1.056V230.463z"/>
		<path d="M230.922,232.167h-0.024l-1.355,0.731l-0.204-0.804l1.703-0.911h0.9v7.795h-1.02V232.167z"/>
		<path d="M238.747,230.895v3.382h3.91v-3.382h1.056v8.083h-1.056v-3.789h-3.91v3.789h-1.043v-8.083H238.747z"/>
		<path d="M246.079,236.268c0.024,1.427,0.935,2.015,1.991,2.015c0.755,0,1.212-0.132,1.606-0.3l0.181,0.756
			c-0.372,0.168-1.007,0.36-1.931,0.36c-1.788,0-2.855-1.176-2.855-2.928c0-1.75,1.032-3.129,2.722-3.129
			c1.896,0,2.399,1.666,2.399,2.734c0,0.215-0.024,0.383-0.036,0.491H246.079z M249.173,235.512
			c0.012-0.671-0.276-1.715-1.464-1.715c-1.067,0-1.535,0.983-1.619,1.715H249.173z"/>
		<path d="M251.502,234.985c0-0.684-0.012-1.271-0.047-1.812h0.923l0.036,1.14h0.048c0.264-0.779,0.899-1.271,1.606-1.271
			c0.121,0,0.205,0.012,0.301,0.035v0.996c-0.108-0.024-0.217-0.037-0.359-0.037c-0.744,0-1.271,0.564-1.416,1.355
			c-0.023,0.145-0.048,0.312-0.048,0.492v3.094h-1.044V234.985z"/>
		<path d="M255.895,236.268c0.023,1.427,0.935,2.015,1.99,2.015c0.756,0,1.211-0.132,1.607-0.3l0.18,0.756
			c-0.372,0.168-1.008,0.36-1.932,0.36c-1.787,0-2.854-1.176-2.854-2.928c0-1.75,1.031-3.129,2.723-3.129
			c1.895,0,2.398,1.666,2.398,2.734c0,0.215-0.024,0.383-0.036,0.491H255.895z M258.988,235.512
			c0.012-0.671-0.275-1.715-1.463-1.715c-1.068,0-1.535,0.983-1.619,1.715H258.988z"/>
	</g>
	<g>
		<rect x="85.217" y="161.152" fill="none" width="85.659" height="31.008"/>
		<path d="M111.226,165.882h-3.142v2.914h3.502v0.875h-4.545v-8.083h4.365v0.875h-3.322v2.555h3.142V165.882z"/>
		<path d="M112.908,161.157h1.056v8.515h-1.056V161.157z"/>
		<path d="M116.328,166.961c0.024,1.427,0.935,2.015,1.991,2.015c0.755,0,1.211-0.132,1.607-0.3l0.18,0.756
			c-0.372,0.168-1.007,0.36-1.931,0.36c-1.787,0-2.854-1.176-2.854-2.928c0-1.75,1.032-3.129,2.723-3.129
			c1.895,0,2.399,1.666,2.399,2.734c0,0.215-0.024,0.383-0.036,0.491H116.328z M119.422,166.206
			c0.012-0.671-0.276-1.715-1.463-1.715c-1.067,0-1.535,0.983-1.619,1.715H119.422z"/>
		<path d="M121.751,165.438c0-0.6-0.012-1.091-0.048-1.571h0.923l0.048,0.936h0.036c0.324-0.551,0.864-1.066,1.823-1.066
			c0.792,0,1.391,0.479,1.643,1.162h0.024c0.18-0.323,0.408-0.575,0.647-0.755c0.348-0.265,0.731-0.407,1.283-0.407
			c0.768,0,1.907,0.503,1.907,2.518v3.418h-1.032v-3.285c0-1.115-0.408-1.787-1.259-1.787c-0.6,0-1.067,0.443-1.247,0.959
			c-0.048,0.145-0.084,0.336-0.084,0.527v3.586h-1.031v-3.478c0-0.923-0.408-1.595-1.211-1.595c-0.66,0-1.14,0.527-1.308,1.055
			c-0.06,0.156-0.084,0.336-0.084,0.516v3.502h-1.031V165.438z"/>
		<path d="M132.347,166.961c0.024,1.427,0.935,2.015,1.991,2.015c0.755,0,1.211-0.132,1.607-0.3l0.18,0.756
			c-0.372,0.168-1.007,0.36-1.931,0.36c-1.787,0-2.854-1.176-2.854-2.928c0-1.75,1.032-3.129,2.723-3.129
			c1.895,0,2.399,1.666,2.399,2.734c0,0.215-0.024,0.383-0.036,0.491H132.347z M135.441,166.206
			c0.012-0.671-0.276-1.715-1.463-1.715c-1.067,0-1.535,0.983-1.619,1.715H135.441z"/>
		<path d="M137.771,165.438c0-0.6-0.012-1.091-0.048-1.571h0.936l0.06,0.96h0.024c0.288-0.552,0.959-1.091,1.919-1.091
			c0.803,0,2.051,0.479,2.051,2.47v3.466h-1.056v-3.346c0-0.936-0.348-1.715-1.343-1.715c-0.695,0-1.235,0.492-1.415,1.079
			c-0.048,0.132-0.072,0.312-0.072,0.491v3.49h-1.056V165.438z"/>
		<path d="M145.655,162.2v1.667h1.511v0.804h-1.511v3.13c0,0.721,0.204,1.128,0.792,1.128c0.276,0,0.479-0.036,0.611-0.071
			l0.048,0.791c-0.204,0.084-0.528,0.145-0.936,0.145c-0.492,0-0.888-0.156-1.14-0.444c-0.3-0.312-0.408-0.827-0.408-1.511v-3.167
			h-0.899v-0.804h0.899v-1.391L145.655,162.2z"/>
		<path d="M148.103,164.827c0-0.444,0.3-0.756,0.72-0.756s0.696,0.312,0.708,0.756c0,0.419-0.276,0.743-0.72,0.743
			C148.391,165.57,148.103,165.246,148.103,164.827z M148.103,169.06c0-0.443,0.3-0.756,0.72-0.756s0.696,0.312,0.708,0.756
			c0,0.42-0.276,0.744-0.72,0.744C148.391,169.804,148.103,169.48,148.103,169.06z"/>
		<path d="M111.888,180.558l5.565-2.867v0.828l-4.689,2.351v0.024l4.689,2.35v0.828l-5.565-2.866V180.558z"/>
		<path d="M120.396,176.6v1.667h1.511v0.803h-1.511v3.131c0,0.72,0.204,1.127,0.792,1.127c0.276,0,0.479-0.035,0.612-0.071
			l0.048,0.792c-0.204,0.084-0.528,0.144-0.936,0.144c-0.492,0-0.888-0.156-1.14-0.444c-0.3-0.312-0.408-0.827-0.408-1.511v-3.167
			h-0.899v-0.803h0.899v-1.392L120.396,176.6z"/>
		<path d="M124.271,176.636c0.012,0.359-0.252,0.647-0.671,0.647c-0.372,0-0.636-0.288-0.636-0.647c0-0.372,0.276-0.66,0.66-0.66
			C124.02,175.976,124.271,176.264,124.271,176.636z M123.096,184.072v-5.805h1.056v5.805H123.096z"/>
		<path d="M127.176,176.6v1.667h1.511v0.803h-1.511v3.131c0,0.72,0.204,1.127,0.792,1.127c0.276,0,0.479-0.035,0.612-0.071
			l0.048,0.792c-0.204,0.084-0.528,0.144-0.936,0.144c-0.492,0-0.888-0.156-1.14-0.444c-0.3-0.312-0.408-0.827-0.408-1.511v-3.167
			h-0.899v-0.803h0.899v-1.392L127.176,176.6z"/>
		<path d="M129.876,175.556h1.056v8.516h-1.056V175.556z"/>
		<path d="M133.296,181.361c0.024,1.428,0.935,2.016,1.991,2.016c0.755,0,1.211-0.133,1.607-0.301l0.18,0.756
			c-0.372,0.168-1.007,0.36-1.931,0.36c-1.787,0-2.854-1.176-2.854-2.927s1.032-3.13,2.723-3.13c1.895,0,2.399,1.667,2.399,2.734
			c0,0.216-0.024,0.384-0.036,0.491H133.296z M136.391,180.605c0.012-0.671-0.276-1.715-1.463-1.715
			c-1.067,0-1.535,0.984-1.619,1.715H136.391z"/>
		<path d="M144.201,181.217l-5.565,2.854v-0.828l4.726-2.35v-0.024l-4.726-2.351v-0.828l5.565,2.855V181.217z"/>
	</g>
	<g>
		<rect x="291.814" y="217.393" fill="none" width="88.773" height="28.474"/>
		<path d="M327.021,218.717h-2.459v-0.888h5.985v0.888h-2.471v7.196h-1.056V218.717z"/>
		<path d="M331.148,223.203c0.024,1.428,0.936,2.015,1.991,2.015c0.755,0,1.212-0.132,1.606-0.3l0.181,0.756
			c-0.372,0.168-1.007,0.359-1.931,0.359c-1.787,0-2.855-1.175-2.855-2.926c0-1.752,1.032-3.131,2.723-3.131
			c1.896,0,2.399,1.668,2.399,2.734c0,0.217-0.024,0.385-0.036,0.492H331.148z M334.243,222.447
			c0.012-0.672-0.276-1.715-1.464-1.715c-1.066,0-1.535,0.983-1.619,1.715H334.243z"/>
		<path d="M337.029,220.109l0.827,1.246c0.216,0.324,0.396,0.624,0.587,0.948h0.037c0.191-0.349,0.383-0.647,0.575-0.96l0.815-1.234
			h1.14l-1.979,2.806l2.039,2.999h-1.199l-0.852-1.308c-0.228-0.336-0.42-0.659-0.623-1.008h-0.024
			c-0.192,0.349-0.396,0.659-0.612,1.008l-0.839,1.308h-1.163l2.062-2.963l-1.967-2.842H337.029z"/>
		<path d="M343.521,218.441v1.668h1.511v0.803h-1.511v3.131c0,0.719,0.204,1.127,0.792,1.127c0.275,0,0.479-0.036,0.611-0.072
			l0.048,0.792c-0.204,0.084-0.528,0.144-0.936,0.144c-0.491,0-0.888-0.156-1.14-0.443c-0.3-0.312-0.408-0.828-0.408-1.512v-3.166
			h-0.898v-0.803h0.898v-1.392L343.521,218.441z"/>
		<path d="M345.969,221.068c0-0.443,0.301-0.756,0.721-0.756s0.695,0.312,0.707,0.756c0,0.42-0.275,0.744-0.72,0.744
			C346.258,221.812,345.969,221.488,345.969,221.068z M345.969,225.301c0-0.443,0.301-0.755,0.721-0.755s0.695,0.312,0.707,0.755
			c0,0.42-0.275,0.743-0.72,0.743C346.258,226.044,345.969,225.721,345.969,225.301z"/>
		<path d="M297.424,232.326c0.503-0.084,1.162-0.156,2.002-0.156c1.031,0,1.787,0.24,2.268,0.672
			c0.443,0.384,0.707,0.971,0.707,1.691c0,0.73-0.216,1.307-0.623,1.727c-0.553,0.588-1.451,0.888-2.471,0.888
			c-0.312,0-0.6-0.013-0.84-0.072v3.238h-1.043V232.326z M298.467,236.223c0.228,0.06,0.516,0.084,0.863,0.084
			c1.26,0,2.027-0.612,2.027-1.728c0-1.066-0.756-1.582-1.907-1.582c-0.456,0-0.804,0.035-0.983,0.084V236.223z"/>
		<path d="M306.674,240.313l-0.084-0.731h-0.037c-0.323,0.455-0.947,0.863-1.774,0.863c-1.175,0-1.774-0.828-1.774-1.667
			c0-1.403,1.246-2.171,3.489-2.159V236.5c0-0.48-0.132-1.344-1.319-1.344c-0.539,0-1.104,0.168-1.511,0.432l-0.24-0.695
			c0.479-0.312,1.175-0.516,1.907-0.516c1.775,0,2.207,1.211,2.207,2.375v2.17c0,0.504,0.023,0.996,0.096,1.392H306.674z
			 M306.518,237.351c-1.152-0.024-2.459,0.18-2.459,1.307c0,0.684,0.456,1.008,0.996,1.008c0.755,0,1.234-0.48,1.402-0.972
			c0.036-0.108,0.061-0.228,0.061-0.336V237.351z"/>
		<path d="M309.242,236.32c0-0.684-0.012-1.271-0.047-1.812h0.923l0.036,1.14h0.048c0.264-0.779,0.899-1.271,1.606-1.271
			c0.121,0,0.205,0.012,0.301,0.035v0.996c-0.108-0.023-0.217-0.036-0.359-0.036c-0.744,0-1.271,0.563-1.416,1.355
			c-0.023,0.144-0.048,0.312-0.048,0.491v3.095h-1.044V236.32z"/>
		<path d="M316.321,240.313l-0.084-0.731h-0.036c-0.324,0.455-0.947,0.863-1.775,0.863c-1.175,0-1.774-0.828-1.774-1.667
			c0-1.403,1.247-2.171,3.489-2.159V236.5c0-0.48-0.131-1.344-1.318-1.344c-0.54,0-1.104,0.168-1.512,0.432l-0.24-0.695
			c0.48-0.312,1.176-0.516,1.908-0.516c1.774,0,2.206,1.211,2.206,2.375v2.17c0,0.504,0.024,0.996,0.097,1.392H316.321z
			 M316.166,237.351c-1.152-0.024-2.459,0.18-2.459,1.307c0,0.684,0.455,1.008,0.995,1.008c0.755,0,1.235-0.48,1.403-0.972
			c0.035-0.108,0.061-0.228,0.061-0.336V237.351z"/>
		<path d="M323.893,234.508c-0.023,0.419-0.049,0.888-0.049,1.595v3.371c0,1.33-0.264,2.146-0.826,2.65
			c-0.564,0.527-1.38,0.695-2.111,0.695c-0.695,0-1.463-0.168-1.932-0.48l0.264-0.803c0.385,0.24,0.984,0.455,1.703,0.455
			c1.08,0,1.871-0.563,1.871-2.026v-0.647h-0.023c-0.324,0.539-0.947,0.971-1.848,0.971c-1.438,0-2.471-1.223-2.471-2.83
			c0-1.967,1.284-3.082,2.615-3.082c1.008,0,1.559,0.527,1.811,1.008h0.024l0.048-0.876H323.893z M322.801,236.798
			c0-0.18-0.012-0.336-0.06-0.479c-0.192-0.612-0.708-1.116-1.476-1.116c-1.008,0-1.727,0.852-1.727,2.194
			c0,1.141,0.575,2.088,1.715,2.088c0.647,0,1.235-0.408,1.463-1.08c0.061-0.18,0.084-0.383,0.084-0.563V236.798z"/>
		<path d="M325.527,236.32c0-0.684-0.012-1.271-0.049-1.812h0.924l0.036,1.14h0.048c0.264-0.779,0.899-1.271,1.607-1.271
			c0.119,0,0.203,0.012,0.299,0.035v0.996c-0.107-0.023-0.215-0.036-0.359-0.036c-0.743,0-1.271,0.563-1.415,1.355
			c-0.024,0.144-0.048,0.312-0.048,0.491v3.095h-1.043V236.32z"/>
		<path d="M332.605,240.313l-0.084-0.731h-0.036c-0.323,0.455-0.947,0.863-1.774,0.863c-1.176,0-1.775-0.828-1.775-1.667
			c0-1.403,1.247-2.171,3.49-2.159V236.5c0-0.48-0.133-1.344-1.32-1.344c-0.539,0-1.103,0.168-1.51,0.432l-0.24-0.695
			c0.479-0.312,1.176-0.516,1.906-0.516c1.775,0,2.207,1.211,2.207,2.375v2.17c0,0.504,0.023,0.996,0.096,1.392H332.605z
			 M332.449,237.351c-1.15-0.024-2.459,0.18-2.459,1.307c0,0.684,0.457,1.008,0.996,1.008c0.756,0,1.235-0.48,1.403-0.972
			c0.036-0.108,0.06-0.228,0.06-0.336V237.351z"/>
		<path d="M335.176,236.404c0-0.744-0.024-1.344-0.049-1.896h0.947l0.049,0.995h0.023c0.432-0.707,1.115-1.127,2.062-1.127
			c1.404,0,2.459,1.188,2.459,2.95c0,2.087-1.271,3.118-2.639,3.118c-0.768,0-1.439-0.336-1.787-0.912h-0.023v3.154h-1.043V236.404z
			 M336.219,237.951c0,0.155,0.023,0.299,0.048,0.432c0.192,0.731,0.827,1.234,1.583,1.234c1.115,0,1.764-0.91,1.764-2.242
			c0-1.163-0.611-2.158-1.728-2.158c-0.72,0-1.392,0.516-1.595,1.307c-0.036,0.132-0.072,0.288-0.072,0.432V237.951z"/>
		<path d="M342.003,231.798h1.056v3.621h0.023c0.168-0.3,0.432-0.563,0.756-0.743c0.312-0.181,0.684-0.3,1.08-0.3
			c0.779,0,2.026,0.479,2.026,2.482v3.454h-1.056v-3.334c0-0.936-0.348-1.728-1.344-1.728c-0.684,0-1.223,0.48-1.414,1.056
			c-0.061,0.144-0.072,0.3-0.072,0.504v3.502h-1.056V231.798z"/>
		<path d="M351.242,232.337c0.456-0.096,1.176-0.168,1.907-0.168c1.044,0,1.716,0.18,2.219,0.588
			c0.42,0.312,0.672,0.791,0.672,1.428c0,0.779-0.516,1.463-1.367,1.774v0.024c0.768,0.191,1.667,0.827,1.667,2.026
			c0,0.696-0.275,1.224-0.684,1.619c-0.564,0.516-1.475,0.755-2.795,0.755c-0.719,0-1.271-0.047-1.619-0.096V232.337z
			 M352.286,235.648h0.947c1.104,0,1.751-0.576,1.751-1.355c0-0.947-0.719-1.319-1.775-1.319c-0.479,0-0.755,0.036-0.923,0.071
			V235.648z M352.286,239.521c0.204,0.037,0.503,0.049,0.876,0.049c1.078,0,2.074-0.396,2.074-1.572
			c0-1.103-0.947-1.559-2.087-1.559h-0.863V239.521z"/>
		<path d="M363.012,237.363c0,2.146-1.487,3.082-2.891,3.082c-1.571,0-2.783-1.151-2.783-2.986c0-1.943,1.271-3.082,2.879-3.082
			C361.885,234.376,363.012,235.587,363.012,237.363z M358.406,237.422c0,1.271,0.731,2.231,1.763,2.231
			c1.007,0,1.763-0.947,1.763-2.256c0-0.982-0.491-2.23-1.738-2.23C358.945,235.167,358.406,236.32,358.406,237.422z"/>
		<path d="M369.359,231.798v7.016c0,0.516,0.012,1.104,0.048,1.499h-0.947l-0.048-1.007h-0.023
			c-0.324,0.646-1.032,1.139-1.979,1.139c-1.403,0-2.483-1.188-2.483-2.95c-0.012-1.931,1.188-3.118,2.604-3.118
			c0.887,0,1.486,0.42,1.751,0.887h0.024v-3.465H369.359z M368.305,236.871c0-0.132-0.013-0.312-0.049-0.443
			c-0.156-0.672-0.731-1.224-1.523-1.224c-1.091,0-1.738,0.96-1.738,2.243c0,1.176,0.575,2.146,1.715,2.146
			c0.707,0,1.355-0.468,1.547-1.26c0.036-0.144,0.049-0.287,0.049-0.455V236.871z"/>
		<path d="M371.498,234.508l1.271,3.431c0.132,0.383,0.275,0.839,0.371,1.187h0.024c0.108-0.348,0.228-0.792,0.372-1.211
			l1.151-3.406h1.115l-1.583,4.138c-0.756,1.99-1.271,3.01-1.991,3.634c-0.516,0.456-1.031,0.636-1.295,0.684l-0.265-0.888
			c0.265-0.084,0.612-0.252,0.924-0.516c0.288-0.228,0.648-0.635,0.888-1.176c0.048-0.107,0.084-0.191,0.084-0.251
			s-0.024-0.144-0.071-0.276l-2.147-5.349H371.498z"/>
	</g>
	<g>
		<rect x="449.806" y="217.942" fill="none" width="63.178" height="31.008"/>
		<path d="M464.574,222.671h-3.143v2.915h3.502v0.876h-4.545v-8.084h4.365v0.875h-3.322v2.555h3.143V222.671z"/>
		<path d="M466.256,217.947h1.057v8.516h-1.057V217.947z"/>
		<path d="M469.676,223.751c0.024,1.428,0.936,2.015,1.991,2.015c0.755,0,1.212-0.132,1.606-0.3l0.181,0.756
			c-0.372,0.168-1.007,0.359-1.931,0.359c-1.787,0-2.855-1.175-2.855-2.926c0-1.752,1.032-3.131,2.723-3.131
			c1.896,0,2.399,1.668,2.399,2.734c0,0.217-0.024,0.385-0.036,0.492H469.676z M472.771,222.996
			c0.012-0.672-0.276-1.715-1.464-1.715c-1.066,0-1.535,0.983-1.619,1.715H472.771z"/>
		<path d="M475.1,222.228c0-0.6-0.012-1.092-0.047-1.57h0.923l0.048,0.936h0.036c0.323-0.553,0.864-1.068,1.823-1.068
			c0.791,0,1.391,0.48,1.643,1.164h0.024c0.18-0.324,0.407-0.576,0.647-0.756c0.348-0.264,0.731-0.408,1.283-0.408
			c0.768,0,1.907,0.504,1.907,2.52v3.418h-1.032v-3.287c0-1.115-0.407-1.787-1.259-1.787c-0.6,0-1.067,0.444-1.247,0.96
			c-0.048,0.144-0.084,0.336-0.084,0.528v3.586h-1.031v-3.479c0-0.924-0.408-1.596-1.211-1.596c-0.66,0-1.141,0.528-1.309,1.057
			c-0.059,0.155-0.084,0.335-0.084,0.516v3.502H475.1V222.228z"/>
		<path d="M485.695,223.751c0.024,1.428,0.936,2.015,1.991,2.015c0.755,0,1.212-0.132,1.606-0.3l0.181,0.756
			c-0.372,0.168-1.007,0.359-1.931,0.359c-1.787,0-2.855-1.175-2.855-2.926c0-1.752,1.032-3.131,2.723-3.131
			c1.896,0,2.399,1.668,2.399,2.734c0,0.217-0.024,0.385-0.036,0.492H485.695z M488.79,222.996c0.012-0.672-0.276-1.715-1.464-1.715
			c-1.066,0-1.535,0.983-1.619,1.715H488.79z"/>
		<path d="M491.119,222.228c0-0.6-0.012-1.092-0.047-1.57h0.936l0.06,0.959h0.024c0.287-0.552,0.959-1.092,1.918-1.092
			c0.804,0,2.051,0.48,2.051,2.471v3.467h-1.055v-3.347c0-0.936-0.348-1.715-1.344-1.715c-0.695,0-1.235,0.491-1.415,1.079
			c-0.048,0.132-0.071,0.312-0.071,0.492v3.49h-1.057V222.228z"/>
		<path d="M499.004,218.99v1.668h1.511v0.803h-1.511v3.131c0,0.719,0.203,1.127,0.791,1.127c0.275,0,0.479-0.036,0.611-0.072
			l0.049,0.792c-0.205,0.084-0.528,0.144-0.936,0.144c-0.492,0-0.889-0.156-1.141-0.443c-0.299-0.312-0.407-0.828-0.407-1.512
			v-3.166h-0.899v-0.803h0.899v-1.392L499.004,218.99z"/>
		<path d="M501.451,221.617c0-0.443,0.301-0.756,0.721-0.756s0.695,0.312,0.707,0.756c0,0.42-0.275,0.744-0.72,0.744
			C501.74,222.361,501.451,222.037,501.451,221.617z M501.451,225.85c0-0.443,0.301-0.755,0.721-0.755s0.695,0.312,0.707,0.755
			c0,0.42-0.275,0.743-0.72,0.743C501.74,226.593,501.451,226.27,501.451,225.85z"/>
		<path d="M472.215,237.347l5.564-2.865v0.827l-4.689,2.351v0.023l4.689,2.352v0.827l-5.564-2.866V237.347z"/>
		<path d="M479.45,232.347h1.056v8.515h-1.056V232.347z"/>
		<path d="M483.457,233.425c0.013,0.36-0.252,0.648-0.671,0.648c-0.372,0-0.636-0.288-0.636-0.648c0-0.371,0.275-0.659,0.66-0.659
			C483.205,232.766,483.457,233.054,483.457,233.425z M482.282,240.862v-5.805h1.056v5.805H482.282z"/>
		<path d="M490.571,238.007l-5.565,2.854v-0.827l4.727-2.352v-0.023l-4.727-2.351v-0.827l5.565,2.854V238.007z"/>
	</g>
	<g>
		<rect x="507.635" y="218.198" fill="none" width="63.178" height="31.008"/>
		<path d="M522.403,222.927h-3.142v2.915h3.502v0.876h-4.546v-8.084h4.365v0.875h-3.321v2.555h3.142V222.927z"/>
		<path d="M524.086,218.203h1.055v8.516h-1.055V218.203z"/>
		<path d="M527.506,224.007c0.023,1.428,0.935,2.015,1.99,2.015c0.756,0,1.211-0.132,1.607-0.3l0.18,0.756
			c-0.372,0.168-1.008,0.359-1.932,0.359c-1.787,0-2.854-1.175-2.854-2.926c0-1.752,1.031-3.131,2.723-3.131
			c1.895,0,2.398,1.668,2.398,2.734c0,0.217-0.024,0.385-0.036,0.492H527.506z M530.6,223.251c0.012-0.672-0.275-1.715-1.463-1.715
			c-1.068,0-1.535,0.983-1.619,1.715H530.6z"/>
		<path d="M532.93,222.484c0-0.6-0.013-1.092-0.049-1.57h0.924l0.048,0.936h0.036c0.324-0.553,0.863-1.068,1.823-1.068
			c0.792,0,1.392,0.48,1.644,1.164h0.023c0.18-0.324,0.408-0.576,0.647-0.756c0.348-0.264,0.731-0.408,1.283-0.408
			c0.768,0,1.907,0.504,1.907,2.52v3.418h-1.031v-3.287c0-1.115-0.408-1.787-1.26-1.787c-0.6,0-1.067,0.444-1.247,0.96
			c-0.048,0.144-0.084,0.336-0.084,0.528v3.586h-1.031v-3.479c0-0.924-0.408-1.596-1.212-1.596c-0.659,0-1.139,0.528-1.307,1.057
			c-0.061,0.155-0.084,0.335-0.084,0.516v3.502h-1.031V222.484z"/>
		<path d="M543.525,224.007c0.023,1.428,0.935,2.015,1.99,2.015c0.756,0,1.211-0.132,1.607-0.3l0.18,0.756
			c-0.372,0.168-1.008,0.359-1.932,0.359c-1.787,0-2.854-1.175-2.854-2.926c0-1.752,1.031-3.131,2.723-3.131
			c1.895,0,2.398,1.668,2.398,2.734c0,0.217-0.024,0.385-0.036,0.492H543.525z M546.619,223.251
			c0.012-0.672-0.275-1.715-1.463-1.715c-1.068,0-1.535,0.983-1.619,1.715H546.619z"/>
		<path d="M548.949,222.484c0-0.6-0.013-1.092-0.049-1.57h0.936l0.061,0.959h0.023c0.288-0.552,0.96-1.092,1.92-1.092
			c0.803,0,2.051,0.48,2.051,2.471v3.467h-1.057v-3.347c0-0.936-0.348-1.715-1.343-1.715c-0.695,0-1.235,0.491-1.415,1.079
			c-0.048,0.132-0.072,0.312-0.072,0.492v3.49h-1.055V222.484z"/>
		<path d="M556.832,219.246v1.668h1.512v0.803h-1.512v3.131c0,0.719,0.204,1.127,0.792,1.127c0.276,0,0.479-0.036,0.611-0.072
			l0.048,0.792c-0.203,0.084-0.527,0.144-0.936,0.144c-0.491,0-0.887-0.156-1.139-0.443c-0.301-0.312-0.408-0.828-0.408-1.512
			v-3.166h-0.899v-0.803h0.899v-1.392L556.832,219.246z"/>
		<path d="M559.281,221.873c0-0.443,0.299-0.756,0.719-0.756s0.696,0.312,0.708,0.756c0,0.42-0.276,0.744-0.72,0.744
			C559.568,222.617,559.281,222.292,559.281,221.873z M559.281,226.106c0-0.443,0.299-0.755,0.719-0.755s0.696,0.312,0.708,0.755
			c0,0.42-0.276,0.743-0.72,0.743C559.568,226.849,559.281,226.526,559.281,226.106z"/>
		<path d="M530.043,237.603l5.565-2.865v0.827l-4.689,2.351v0.023l4.689,2.352v0.827l-5.565-2.866V237.603z"/>
		<path d="M537.279,232.603h1.056v8.515h-1.056V232.603z"/>
		<path d="M541.287,233.681c0.012,0.36-0.252,0.648-0.672,0.648c-0.372,0-0.636-0.288-0.636-0.648c0-0.371,0.276-0.659,0.659-0.659
			C541.035,233.022,541.287,233.31,541.287,233.681z M540.111,241.118v-5.805h1.056v5.805H540.111z"/>
		<path d="M548.4,238.263l-5.564,2.854v-0.827l4.725-2.352v-0.023l-4.725-2.351v-0.827l5.564,2.854V238.263z"/>
	</g>
	<g>
		<rect x="565.897" y="217.747" fill="none" width="63.178" height="31.008"/>
		<path d="M580.666,222.477h-3.142v2.915h3.502v0.875h-4.546v-8.084h4.365v0.876h-3.321v2.555h3.142V222.477z"/>
		<path d="M582.349,217.751h1.056v8.516h-1.056V217.751z"/>
		<path d="M585.769,223.556c0.024,1.428,0.935,2.016,1.991,2.016c0.755,0,1.211-0.133,1.606-0.301l0.181,0.756
			c-0.373,0.168-1.008,0.36-1.932,0.36c-1.787,0-2.854-1.175-2.854-2.927c0-1.751,1.032-3.13,2.723-3.13
			c1.896,0,2.399,1.667,2.399,2.734c0,0.216-0.025,0.384-0.037,0.491H585.769z M588.863,222.8c0.012-0.671-0.276-1.715-1.464-1.715
			c-1.067,0-1.535,0.984-1.619,1.715H588.863z"/>
		<path d="M591.192,222.033c0-0.6-0.013-1.091-0.048-1.57h0.924l0.047,0.936h0.037c0.323-0.552,0.863-1.067,1.822-1.067
			c0.792,0,1.392,0.479,1.644,1.163h0.024c0.18-0.324,0.407-0.576,0.646-0.756c0.348-0.264,0.732-0.407,1.283-0.407
			c0.768,0,1.908,0.503,1.908,2.519v3.418h-1.032v-3.286c0-1.115-0.407-1.787-1.259-1.787c-0.6,0-1.068,0.444-1.248,0.96
			c-0.047,0.144-0.084,0.336-0.084,0.527v3.586h-1.031v-3.479c0-0.923-0.408-1.595-1.211-1.595c-0.66,0-1.14,0.528-1.308,1.056
			c-0.06,0.156-0.084,0.336-0.084,0.516v3.502h-1.031V222.033z"/>
		<path d="M601.788,223.556c0.024,1.428,0.935,2.016,1.991,2.016c0.755,0,1.211-0.133,1.606-0.301l0.181,0.756
			c-0.373,0.168-1.008,0.36-1.932,0.36c-1.787,0-2.854-1.175-2.854-2.927c0-1.751,1.032-3.13,2.723-3.13
			c1.896,0,2.399,1.667,2.399,2.734c0,0.216-0.025,0.384-0.037,0.491H601.788z M604.883,222.8c0.012-0.671-0.276-1.715-1.464-1.715
			c-1.067,0-1.535,0.984-1.619,1.715H604.883z"/>
		<path d="M607.212,222.033c0-0.6-0.013-1.091-0.048-1.57h0.936l0.061,0.959h0.023c0.287-0.551,0.959-1.091,1.919-1.091
			c0.804,0,2.051,0.479,2.051,2.47v3.467h-1.056v-3.346c0-0.936-0.348-1.715-1.344-1.715c-0.695,0-1.234,0.491-1.414,1.078
			c-0.049,0.133-0.072,0.312-0.072,0.492v3.49h-1.056V222.033z"/>
		<path d="M615.096,218.795v1.667h1.512v0.803h-1.512v3.131c0,0.72,0.203,1.127,0.791,1.127c0.276,0,0.48-0.035,0.611-0.071
			l0.049,0.792c-0.204,0.084-0.527,0.144-0.936,0.144c-0.492,0-0.888-0.156-1.14-0.444c-0.3-0.312-0.407-0.827-0.407-1.511v-3.167
			h-0.9v-0.803h0.9v-1.391L615.096,218.795z"/>
		<path d="M617.544,221.421c0-0.443,0.3-0.756,0.72-0.756s0.695,0.312,0.707,0.756c0,0.42-0.275,0.744-0.719,0.744
			C617.832,222.166,617.544,221.841,617.544,221.421z M617.544,225.656c0-0.443,0.3-0.756,0.72-0.756s0.695,0.312,0.707,0.756
			c0,0.42-0.275,0.743-0.719,0.743C617.832,226.399,617.544,226.076,617.544,225.656z"/>
		<path d="M588.307,237.153l5.564-2.866v0.828l-4.689,2.35v0.024l4.689,2.351v0.828l-5.564-2.867V237.153z"/>
		<path d="M595.543,232.152h1.055v8.516h-1.055V232.152z"/>
		<path d="M599.55,233.231c0.013,0.36-0.252,0.647-0.671,0.647c-0.373,0-0.637-0.287-0.637-0.647c0-0.372,0.276-0.659,0.66-0.659
			C599.298,232.572,599.55,232.859,599.55,233.231z M598.375,240.667v-5.805h1.055v5.805H598.375z"/>
		<path d="M606.664,237.812l-5.565,2.855v-0.828l4.726-2.351v-0.024l-4.726-2.35v-0.828l5.565,2.854V237.812z"/>
	</g>
	<path opacity="0.6" fill="#3FA9F5" stroke="#000000" stroke-miterlimit="10" d="M73.678,180.351c0,6.1-4.459,11.146-9.396,11.146
		H16.615c-4.936,0-8.938-5.047-8.938-11.146v-13.808c0-6.101,4.001-11.046,8.938-11.046h47.667c4.937,0,9.396,4.945,9.396,11.046
		V180.351z"/>
	<g>
		<rect x="-2.783" y="161.152" fill="none" width="85.658" height="31.008"/>
		<path d="M23.226,165.882h-3.142v2.914h3.502v0.875H19.04v-8.083h4.365v0.875h-3.322v2.555h3.142V165.882z"/>
		<path d="M24.908,161.157h1.056v8.515h-1.056V161.157z"/>
		<path d="M28.328,166.961c0.024,1.427,0.935,2.015,1.991,2.015c0.755,0,1.211-0.132,1.607-0.3l0.18,0.756
			c-0.372,0.168-1.007,0.36-1.931,0.36c-1.787,0-2.854-1.176-2.854-2.928c0-1.75,1.032-3.129,2.723-3.129
			c1.895,0,2.399,1.666,2.399,2.734c0,0.215-0.024,0.383-0.036,0.491H28.328z M31.422,166.206c0.012-0.671-0.276-1.715-1.463-1.715
			c-1.067,0-1.535,0.983-1.619,1.715H31.422z"/>
		<path d="M33.751,165.438c0-0.6-0.012-1.091-0.048-1.571h0.923l0.048,0.936h0.036c0.324-0.551,0.864-1.066,1.823-1.066
			c0.792,0,1.391,0.479,1.643,1.162h0.024c0.18-0.323,0.408-0.575,0.647-0.755c0.348-0.265,0.731-0.407,1.283-0.407
			c0.768,0,1.907,0.503,1.907,2.518v3.418h-1.032v-3.285c0-1.115-0.408-1.787-1.259-1.787c-0.6,0-1.067,0.443-1.247,0.959
			c-0.048,0.145-0.084,0.336-0.084,0.527v3.586h-1.031v-3.478c0-0.923-0.408-1.595-1.211-1.595c-0.66,0-1.14,0.527-1.308,1.055
			c-0.06,0.156-0.084,0.336-0.084,0.516v3.502h-1.031V165.438z"/>
		<path d="M44.347,166.961c0.024,1.427,0.935,2.015,1.991,2.015c0.755,0,1.211-0.132,1.607-0.3l0.18,0.756
			c-0.372,0.168-1.007,0.36-1.931,0.36c-1.787,0-2.854-1.176-2.854-2.928c0-1.75,1.032-3.129,2.723-3.129
			c1.895,0,2.399,1.666,2.399,2.734c0,0.215-0.024,0.383-0.036,0.491H44.347z M47.441,166.206c0.012-0.671-0.276-1.715-1.463-1.715
			c-1.067,0-1.535,0.983-1.619,1.715H47.441z"/>
		<path d="M49.771,165.438c0-0.6-0.012-1.091-0.048-1.571h0.936l0.06,0.96h0.024c0.288-0.552,0.959-1.091,1.919-1.091
			c0.803,0,2.051,0.479,2.051,2.47v3.466h-1.056v-3.346c0-0.936-0.348-1.715-1.343-1.715c-0.695,0-1.235,0.492-1.415,1.079
			c-0.048,0.132-0.072,0.312-0.072,0.491v3.49h-1.056V165.438z"/>
		<path d="M57.655,162.2v1.667h1.511v0.804h-1.511v3.13c0,0.721,0.204,1.128,0.792,1.128c0.276,0,0.479-0.036,0.611-0.071
			l0.048,0.791c-0.204,0.084-0.528,0.145-0.936,0.145c-0.492,0-0.888-0.156-1.14-0.444c-0.3-0.312-0.408-0.827-0.408-1.511v-3.167
			h-0.899v-0.804h0.899v-1.391L57.655,162.2z"/>
		<path d="M60.103,164.827c0-0.444,0.3-0.756,0.72-0.756s0.696,0.312,0.708,0.756c0,0.419-0.276,0.743-0.72,0.743
			C60.391,165.57,60.103,165.246,60.103,164.827z M60.103,169.06c0-0.443,0.3-0.756,0.72-0.756s0.696,0.312,0.708,0.756
			c0,0.42-0.276,0.744-0.72,0.744C60.391,169.804,60.103,169.48,60.103,169.06z"/>
		<path d="M20.798,180.558l5.565-2.867v0.828l-4.689,2.351v0.024l4.689,2.35v0.828l-5.565-2.866V180.558z"/>
		<path d="M28.034,179.837c0-0.6-0.012-1.091-0.048-1.57h0.923l0.048,0.936h0.036c0.324-0.552,0.864-1.067,1.823-1.067
			c0.792,0,1.391,0.479,1.643,1.163h0.024c0.18-0.324,0.408-0.576,0.647-0.756c0.348-0.264,0.731-0.407,1.283-0.407
			c0.768,0,1.907,0.503,1.907,2.519v3.418H35.29v-3.286c0-1.115-0.408-1.787-1.259-1.787c-0.6,0-1.067,0.444-1.247,0.96
			c-0.048,0.144-0.084,0.336-0.084,0.527v3.586h-1.031v-3.479c0-0.923-0.408-1.595-1.211-1.595c-0.66,0-1.14,0.528-1.308,1.056
			c-0.06,0.156-0.084,0.336-0.084,0.516v3.502h-1.031V179.837z"/>
		<path d="M38.629,181.361c0.024,1.428,0.935,2.016,1.991,2.016c0.755,0,1.211-0.133,1.607-0.301l0.18,0.756
			c-0.372,0.168-1.007,0.36-1.931,0.36c-1.787,0-2.854-1.176-2.854-2.927s1.032-3.13,2.723-3.13c1.895,0,2.399,1.667,2.399,2.734
			c0,0.216-0.024,0.384-0.036,0.491H38.629z M41.724,180.605c0.012-0.671-0.276-1.715-1.463-1.715c-1.067,0-1.535,0.984-1.619,1.715
			H41.724z"/>
		<path d="M45.325,176.6v1.667h1.511v0.803h-1.511v3.131c0,0.72,0.204,1.127,0.792,1.127c0.276,0,0.479-0.035,0.611-0.071
			l0.048,0.792c-0.204,0.084-0.528,0.144-0.936,0.144c-0.492,0-0.888-0.156-1.14-0.444c-0.3-0.312-0.408-0.827-0.408-1.511v-3.167
			h-0.899v-0.803h0.899v-1.392L45.325,176.6z"/>
		<path d="M51.239,184.072l-0.084-0.731h-0.036c-0.324,0.456-0.947,0.863-1.775,0.863c-1.175,0-1.775-0.827-1.775-1.667
			c0-1.403,1.247-2.171,3.49-2.158v-0.121c0-0.479-0.132-1.343-1.319-1.343c-0.54,0-1.104,0.168-1.511,0.432l-0.24-0.695
			c0.48-0.312,1.175-0.516,1.907-0.516c1.775,0,2.207,1.211,2.207,2.374v2.172c0,0.503,0.024,0.994,0.096,1.391H51.239z
			 M51.083,181.109c-1.151-0.023-2.458,0.181-2.458,1.308c0,0.684,0.456,1.008,0.996,1.008c0.755,0,1.235-0.479,1.403-0.972
			c0.036-0.107,0.06-0.229,0.06-0.336V181.109z"/>
		<path d="M59.29,181.217l-5.565,2.854v-0.828l4.726-2.35v-0.024l-4.726-2.351v-0.828l5.565,2.855V181.217z"/>
	</g>
	<line fill="none" stroke="#000000" stroke-miterlimit="10" x1="236.435" y1="45.735" x2="82.946" y2="91.472"/>
	<line fill="none" stroke="#000000" stroke-miterlimit="10" x1="239.535" y1="45.735" x2="407.752" y2="92.247"/>
	<line fill="none" stroke="#000000" stroke-miterlimit="10" x1="82.171" y1="127.906" x2="36.946" y2="154.472"/>
	<line fill="none" stroke="#000000" stroke-miterlimit="10" x1="131.008" y1="155.038" x2="82.177" y2="128.592"/>
	<line fill="none" stroke="#000000" stroke-miterlimit="10" x1="408.527" y1="129.456" x2="238.76" y2="155.038"/>
	<line fill="none" stroke="#000000" stroke-miterlimit="10" x1="541.86" y1="155.038" x2="409.984" y2="128.813"/>
	<line fill="#3FA9F5" stroke="#000000" stroke-miterlimit="10" x1="410.086" y1="129.448" x2="331.782" y2="155.038"/>
	<path opacity="0.6" fill="#BDCCD4" stroke="#000000" stroke-miterlimit="10" d="M440.678,180.351c0,6.1-4.144,11.146-8.383,11.146
		h-40.941c-4.238,0-7.676-5.047-7.676-11.146v-13.808c0-6.101,3.438-11.046,7.676-11.046h40.941c4.239,0,8.383,4.945,8.383,11.046
		V180.351z"/>
	<g>
		<rect x="370.294" y="161.688" fill="none" width="85.659" height="31.008"/>
		<path d="M391.451,167.666l-0.84,2.543h-1.08l2.747-8.084h1.259l2.759,8.084h-1.115l-0.863-2.543H391.451z M394.102,166.85
			l-0.792-2.327c-0.18-0.527-0.3-1.008-0.419-1.475h-0.025c-0.119,0.479-0.251,0.971-0.407,1.463l-0.792,2.339H394.102z"/>
		<path d="M398.604,162.736v1.667h1.511v0.803h-1.511v3.131c0,0.719,0.203,1.127,0.791,1.127c0.275,0,0.479-0.036,0.611-0.072
			l0.049,0.792c-0.205,0.084-0.528,0.144-0.936,0.144c-0.492,0-0.889-0.156-1.141-0.443c-0.299-0.312-0.407-0.828-0.407-1.512
			v-3.166h-0.899v-0.803h0.899v-1.392L398.604,162.736z"/>
		<path d="M402.574,162.736v1.667h1.512v0.803h-1.512v3.131c0,0.719,0.204,1.127,0.792,1.127c0.276,0,0.479-0.036,0.611-0.072
			l0.048,0.792c-0.203,0.084-0.527,0.144-0.936,0.144c-0.491,0-0.887-0.156-1.139-0.443c-0.301-0.312-0.408-0.828-0.408-1.512
			v-3.166h-0.899v-0.803h0.899v-1.392L402.574,162.736z"/>
		<path d="M405.275,166.214c0-0.684-0.013-1.271-0.049-1.811h0.924l0.036,1.139h0.048c0.264-0.779,0.899-1.271,1.607-1.271
			c0.119,0,0.203,0.012,0.3,0.036v0.995c-0.108-0.023-0.216-0.035-0.36-0.035c-0.743,0-1.271,0.563-1.415,1.355
			c-0.024,0.144-0.048,0.311-0.048,0.491v3.095h-1.043V166.214z"/>
		<path d="M410.422,162.772c0.013,0.36-0.252,0.647-0.671,0.647c-0.372,0-0.636-0.287-0.636-0.647c0-0.372,0.275-0.66,0.66-0.66
			C410.17,162.112,410.422,162.4,410.422,162.772z M409.247,170.208v-5.805h1.056v5.805H409.247z"/>
		<path d="M412.008,170.208c0.023-0.396,0.047-0.984,0.047-1.5v-7.016h1.044v3.646h0.024c0.371-0.648,1.043-1.068,1.979-1.068
			c1.439,0,2.459,1.199,2.447,2.963c0,2.074-1.309,3.105-2.604,3.105c-0.84,0-1.511-0.323-1.942-1.091h-0.036l-0.048,0.96H412.008z
			 M413.099,167.881c0,0.132,0.024,0.264,0.048,0.384c0.204,0.731,0.815,1.235,1.583,1.235c1.104,0,1.763-0.899,1.763-2.231
			c0-1.162-0.6-2.158-1.727-2.158c-0.72,0-1.391,0.492-1.607,1.295c-0.023,0.12-0.06,0.264-0.06,0.432V167.881z"/>
		<path d="M423.74,168.625c0,0.6,0.012,1.128,0.048,1.584h-0.936l-0.06-0.947h-0.024c-0.276,0.467-0.888,1.078-1.919,1.078
			c-0.911,0-2.003-0.503-2.003-2.542v-3.394h1.056v3.214c0,1.103,0.336,1.847,1.295,1.847c0.708,0,1.199-0.492,1.392-0.959
			c0.06-0.156,0.096-0.348,0.096-0.54v-3.562h1.056V168.625z"/>
		<path d="M426.766,162.736v1.667h1.512v0.803h-1.512v3.131c0,0.719,0.204,1.127,0.792,1.127c0.276,0,0.479-0.036,0.611-0.072
			l0.048,0.792c-0.203,0.084-0.527,0.144-0.936,0.144c-0.491,0-0.887-0.156-1.139-0.443c-0.301-0.312-0.408-0.828-0.408-1.512
			v-3.166h-0.899v-0.803h0.899v-1.392L426.766,162.736z"/>
		<path d="M429.982,167.498c0.023,1.428,0.936,2.015,1.99,2.015c0.756,0,1.212-0.132,1.607-0.3l0.18,0.756
			c-0.371,0.168-1.007,0.359-1.931,0.359c-1.787,0-2.854-1.175-2.854-2.926c0-1.752,1.031-3.131,2.723-3.131
			c1.895,0,2.398,1.668,2.398,2.734c0,0.217-0.023,0.385-0.035,0.492H429.982z M433.076,166.742
			c0.012-0.672-0.275-1.715-1.463-1.715c-1.067,0-1.535,0.983-1.619,1.715H433.076z"/>
		<path d="M435.154,165.363c0-0.443,0.3-0.756,0.72-0.756s0.696,0.312,0.708,0.756c0,0.42-0.276,0.744-0.721,0.744
			C435.442,166.107,435.154,165.783,435.154,165.363z M435.154,169.596c0-0.443,0.3-0.755,0.72-0.755s0.696,0.312,0.708,0.755
			c0,0.42-0.276,0.743-0.721,0.743C435.442,170.339,435.154,170.016,435.154,169.596z"/>
		<path d="M406.389,184.392c-0.275,0.145-0.888,0.336-1.667,0.336c-1.751,0-2.891-1.188-2.891-2.963
			c0-1.787,1.224-3.082,3.118-3.082c0.624,0,1.176,0.156,1.463,0.3l-0.239,0.815c-0.252-0.144-0.647-0.275-1.224-0.275
			c-1.331,0-2.051,0.983-2.051,2.194c0,1.343,0.863,2.171,2.016,2.171c0.6,0,0.995-0.156,1.295-0.287L406.389,184.392z"/>
		<path d="M407.627,176.093h1.056v8.515h-1.056V176.093z"/>
		<path d="M413.674,184.608l-0.084-0.731h-0.037c-0.323,0.455-0.947,0.863-1.774,0.863c-1.175,0-1.774-0.828-1.774-1.667
			c0-1.403,1.246-2.171,3.489-2.159v-0.119c0-0.48-0.132-1.344-1.319-1.344c-0.539,0-1.104,0.168-1.511,0.432l-0.24-0.695
			c0.479-0.312,1.176-0.516,1.907-0.516c1.775,0,2.207,1.211,2.207,2.375v2.17c0,0.504,0.023,0.996,0.096,1.392H413.674z
			 M413.518,181.646c-1.151-0.024-2.459,0.18-2.459,1.307c0,0.684,0.456,1.008,0.996,1.008c0.755,0,1.234-0.48,1.402-0.972
			c0.036-0.108,0.061-0.228,0.061-0.336V181.646z"/>
		<path d="M416.099,183.529c0.312,0.203,0.864,0.42,1.392,0.42c0.768,0,1.127-0.385,1.127-0.863c0-0.504-0.3-0.78-1.079-1.068
			c-1.044-0.371-1.535-0.947-1.535-1.643c0-0.936,0.755-1.703,2.003-1.703c0.588,0,1.104,0.168,1.428,0.359l-0.265,0.768
			c-0.228-0.144-0.647-0.336-1.187-0.336c-0.625,0-0.973,0.36-0.973,0.792c0,0.479,0.348,0.695,1.104,0.983
			c1.008,0.384,1.523,0.888,1.523,1.751c0,1.02-0.791,1.739-2.171,1.739c-0.636,0-1.224-0.156-1.631-0.396L416.099,183.529z"/>
		<path d="M420.851,183.529c0.312,0.203,0.864,0.42,1.392,0.42c0.768,0,1.127-0.385,1.127-0.863c0-0.504-0.3-0.78-1.079-1.068
			c-1.044-0.371-1.535-0.947-1.535-1.643c0-0.936,0.755-1.703,2.003-1.703c0.588,0,1.104,0.168,1.428,0.359l-0.265,0.768
			c-0.228-0.144-0.647-0.336-1.187-0.336c-0.625,0-0.973,0.36-0.973,0.792c0,0.479,0.348,0.695,1.104,0.983
			c1.008,0.384,1.523,0.888,1.523,1.751c0,1.02-0.791,1.739-2.171,1.739c-0.636,0-1.224-0.156-1.631-0.396L420.851,183.529z"/>
	</g>
	<g>
	</g>
	<g>
	</g>
	<g>
	</g>
	<g>
	</g>
	<g>
	</g>
	<g>
	</g>
	<g>
	</g>
	<g>
	</g>
	<g>
	</g>
	<g>
	</g>
	<g>
	</g>
	<g>
	</g>
	<g>
	</g>
	<g>
	</g>
	<g>
	</g>
</g>
</svg>
